<mxfile host="app.diagrams.net" modified="2023-05-08T03:57:59.489Z" agent="Mozilla/5.0 (Windows NT 10.0; Win64; x64) AppleWebKit/537.36 (KHTML, like Gecko) Chrome/112.0.0.0 Safari/537.36" etag="JZAkv-xPfwX-X6SDDsEL" version="21.2.8" type="device" pages="2">
  <diagram id="C5RBs43oDa-KdzZeNtuy" name="Page-1">
    <mxGraphModel dx="1877" dy="523" grid="1" gridSize="10" guides="1" tooltips="1" connect="1" arrows="1" fold="1" page="1" pageScale="1" pageWidth="827" pageHeight="1169" math="0" shadow="0">
      <root>
        <mxCell id="WIyWlLk6GJQsqaUBKTNV-0" />
        <mxCell id="WIyWlLk6GJQsqaUBKTNV-1" parent="WIyWlLk6GJQsqaUBKTNV-0" />
        <mxCell id="VhWryRlksCPVGQsWvKfW-2" value="Customer" style="swimlane;fontStyle=1;align=center;verticalAlign=top;childLayout=stackLayout;horizontal=1;startSize=26;horizontalStack=0;resizeParent=1;resizeParentMax=0;resizeLast=0;collapsible=1;marginBottom=0;" parent="WIyWlLk6GJQsqaUBKTNV-1" vertex="1">
          <mxGeometry x="200" y="560" width="160" height="218" as="geometry" />
        </mxCell>
        <mxCell id="VhWryRlksCPVGQsWvKfW-3" value="- customer_Id : string&#xa;- name : string&#xa;- password : string&#xa;- email : string&#xa;- district : string&#xa;- NIC : string&#xa;- contact_no : string&#xa;" style="text;strokeColor=none;fillColor=none;align=left;verticalAlign=top;spacingLeft=4;spacingRight=4;overflow=hidden;rotatable=0;points=[[0,0.5],[1,0.5]];portConstraint=eastwest;" parent="VhWryRlksCPVGQsWvKfW-2" vertex="1">
          <mxGeometry y="26" width="160" height="114" as="geometry" />
        </mxCell>
        <mxCell id="VhWryRlksCPVGQsWvKfW-4" value="" style="line;strokeWidth=1;fillColor=none;align=left;verticalAlign=middle;spacingTop=-1;spacingLeft=3;spacingRight=3;rotatable=0;labelPosition=right;points=[];portConstraint=eastwest;strokeColor=inherit;" parent="VhWryRlksCPVGQsWvKfW-2" vertex="1">
          <mxGeometry y="140" width="160" height="8" as="geometry" />
        </mxCell>
        <mxCell id="VhWryRlksCPVGQsWvKfW-5" value="+ method(type): type" style="text;strokeColor=none;fillColor=none;align=left;verticalAlign=top;spacingLeft=4;spacingRight=4;overflow=hidden;rotatable=0;points=[[0,0.5],[1,0.5]];portConstraint=eastwest;" parent="VhWryRlksCPVGQsWvKfW-2" vertex="1">
          <mxGeometry y="148" width="160" height="70" as="geometry" />
        </mxCell>
        <mxCell id="VhWryRlksCPVGQsWvKfW-6" value="Package" style="swimlane;fontStyle=1;align=center;verticalAlign=top;childLayout=stackLayout;horizontal=1;startSize=26;horizontalStack=0;resizeParent=1;resizeParentMax=0;resizeLast=0;collapsible=1;marginBottom=0;" parent="WIyWlLk6GJQsqaUBKTNV-1" vertex="1">
          <mxGeometry x="488" y="560" width="160" height="178" as="geometry" />
        </mxCell>
        <mxCell id="VhWryRlksCPVGQsWvKfW-7" value="- package_Id : string&#xa;- services_Included : string&#xa;- price: string&#xa;- package_name : string&#xa;" style="text;strokeColor=none;fillColor=none;align=left;verticalAlign=top;spacingLeft=4;spacingRight=4;overflow=hidden;rotatable=0;points=[[0,0.5],[1,0.5]];portConstraint=eastwest;" parent="VhWryRlksCPVGQsWvKfW-6" vertex="1">
          <mxGeometry y="26" width="160" height="74" as="geometry" />
        </mxCell>
        <mxCell id="VhWryRlksCPVGQsWvKfW-8" value="" style="line;strokeWidth=1;fillColor=none;align=left;verticalAlign=middle;spacingTop=-1;spacingLeft=3;spacingRight=3;rotatable=0;labelPosition=right;points=[];portConstraint=eastwest;strokeColor=inherit;" parent="VhWryRlksCPVGQsWvKfW-6" vertex="1">
          <mxGeometry y="100" width="160" height="8" as="geometry" />
        </mxCell>
        <mxCell id="VhWryRlksCPVGQsWvKfW-9" value="+ method(type): type" style="text;strokeColor=none;fillColor=none;align=left;verticalAlign=top;spacingLeft=4;spacingRight=4;overflow=hidden;rotatable=0;points=[[0,0.5],[1,0.5]];portConstraint=eastwest;" parent="VhWryRlksCPVGQsWvKfW-6" vertex="1">
          <mxGeometry y="108" width="160" height="70" as="geometry" />
        </mxCell>
        <mxCell id="VhWryRlksCPVGQsWvKfW-10" value="Reservation" style="swimlane;fontStyle=1;align=center;verticalAlign=top;childLayout=stackLayout;horizontal=1;startSize=26;horizontalStack=0;resizeParent=1;resizeParentMax=0;resizeLast=0;collapsible=1;marginBottom=0;" parent="WIyWlLk6GJQsqaUBKTNV-1" vertex="1">
          <mxGeometry x="200" y="830" width="160" height="208" as="geometry" />
        </mxCell>
        <mxCell id="VhWryRlksCPVGQsWvKfW-11" value="- reservation_Id : string&#xa;- time : date/time&#xa;- date : date/time&#xa;- rv_Category : string&#xa;- event_name : string&#xa;- description : string&#xa;" style="text;strokeColor=none;fillColor=none;align=left;verticalAlign=top;spacingLeft=4;spacingRight=4;overflow=hidden;rotatable=0;points=[[0,0.5],[1,0.5]];portConstraint=eastwest;" parent="VhWryRlksCPVGQsWvKfW-10" vertex="1">
          <mxGeometry y="26" width="160" height="104" as="geometry" />
        </mxCell>
        <mxCell id="VhWryRlksCPVGQsWvKfW-12" value="" style="line;strokeWidth=1;fillColor=none;align=left;verticalAlign=middle;spacingTop=-1;spacingLeft=3;spacingRight=3;rotatable=0;labelPosition=right;points=[];portConstraint=eastwest;strokeColor=inherit;" parent="VhWryRlksCPVGQsWvKfW-10" vertex="1">
          <mxGeometry y="130" width="160" height="8" as="geometry" />
        </mxCell>
        <mxCell id="VhWryRlksCPVGQsWvKfW-13" value="+ method(type): type" style="text;strokeColor=none;fillColor=none;align=left;verticalAlign=top;spacingLeft=4;spacingRight=4;overflow=hidden;rotatable=0;points=[[0,0.5],[1,0.5]];portConstraint=eastwest;" parent="VhWryRlksCPVGQsWvKfW-10" vertex="1">
          <mxGeometry y="138" width="160" height="70" as="geometry" />
        </mxCell>
        <mxCell id="VhWryRlksCPVGQsWvKfW-14" value="Report" style="swimlane;fontStyle=1;align=center;verticalAlign=top;childLayout=stackLayout;horizontal=1;startSize=26;horizontalStack=0;resizeParent=1;resizeParentMax=0;resizeLast=0;collapsible=1;marginBottom=0;" parent="WIyWlLk6GJQsqaUBKTNV-1" vertex="1">
          <mxGeometry x="460" y="830" width="160" height="158" as="geometry" />
        </mxCell>
        <mxCell id="VhWryRlksCPVGQsWvKfW-15" value="- report_Id : string&#xa;- date : date/time&#xa;&#xa;" style="text;strokeColor=none;fillColor=none;align=left;verticalAlign=top;spacingLeft=4;spacingRight=4;overflow=hidden;rotatable=0;points=[[0,0.5],[1,0.5]];portConstraint=eastwest;" parent="VhWryRlksCPVGQsWvKfW-14" vertex="1">
          <mxGeometry y="26" width="160" height="54" as="geometry" />
        </mxCell>
        <mxCell id="VhWryRlksCPVGQsWvKfW-16" value="" style="line;strokeWidth=1;fillColor=none;align=left;verticalAlign=middle;spacingTop=-1;spacingLeft=3;spacingRight=3;rotatable=0;labelPosition=right;points=[];portConstraint=eastwest;strokeColor=inherit;" parent="VhWryRlksCPVGQsWvKfW-14" vertex="1">
          <mxGeometry y="80" width="160" height="8" as="geometry" />
        </mxCell>
        <mxCell id="VhWryRlksCPVGQsWvKfW-17" value="+ method(type): type" style="text;strokeColor=none;fillColor=none;align=left;verticalAlign=top;spacingLeft=4;spacingRight=4;overflow=hidden;rotatable=0;points=[[0,0.5],[1,0.5]];portConstraint=eastwest;" parent="VhWryRlksCPVGQsWvKfW-14" vertex="1">
          <mxGeometry y="88" width="160" height="70" as="geometry" />
        </mxCell>
        <mxCell id="VhWryRlksCPVGQsWvKfW-18" value="&lt;span style=&quot;color: rgba(0, 0, 0, 0); font-family: monospace; font-size: 0px; text-align: start;&quot;&gt;%3CmxGraphModel%3E%3Croot%3E%3CmxCell%20id%3D%220%22%2F%3E%3CmxCell%20id%3D%221%22%20parent%3D%220%22%2F%3E%3CmxCell%20id%3D%222%22%20value%3D%22Customer%22%20style%3D%22swimlane%3BfontStyle%3D1%3Balign%3Dcenter%3BverticalAlign%3Dtop%3BchildLayout%3DstackLayout%3Bhorizontal%3D1%3BstartSize%3D26%3BhorizontalStack%3D0%3BresizeParent%3D1%3BresizeParentMax%3D0%3BresizeLast%3D0%3Bcollapsible%3D1%3BmarginBottom%3D0%3B%22%20vertex%3D%221%22%20parent%3D%221%22%3E%3CmxGeometry%20x%3D%22200%22%20y%3D%22560%22%20width%3D%22160%22%20height%3D%22218%22%20as%3D%22geometry%22%2F%3E%3C%2FmxCell%3E%3CmxCell%20id%3D%223%22%20value%3D%22-%20customer_Id%20%3A%20string%26%2310%3B-%20name%20%3A%20string%26%2310%3B-%20password%20%3A%20string%26%2310%3B-%20email%20%3A%20string%26%2310%3B-%20district%20%3A%20string%26%2310%3B-%20NIC%20%3A%20string%26%2310%3B-%20contact_no%20%3A%20string%26%2310%3B%22%20style%3D%22text%3BstrokeColor%3Dnone%3BfillColor%3Dnone%3Balign%3Dleft%3BverticalAlign%3Dtop%3BspacingLeft%3D4%3BspacingRight%3D4%3Boverflow%3Dhidden%3Brotatable%3D0%3Bpoints%3D%5B%5B0%2C0.5%5D%2C%5B1%2C0.5%5D%5D%3BportConstraint%3Deastwest%3B%22%20vertex%3D%221%22%20parent%3D%222%22%3E%3CmxGeometry%20y%3D%2226%22%20width%3D%22160%22%20height%3D%22114%22%20as%3D%22geometry%22%2F%3E%3C%2FmxCell%3E%3CmxCell%20id%3D%224%22%20value%3D%22%22%20style%3D%22line%3BstrokeWidth%3D1%3BfillColor%3Dnone%3Balign%3Dleft%3BverticalAlign%3Dmiddle%3BspacingTop%3D-1%3BspacingLeft%3D3%3BspacingRight%3D3%3Brotatable%3D0%3BlabelPosition%3Dright%3Bpoints%3D%5B%5D%3BportConstraint%3Deastwest%3BstrokeColor%3Dinherit%3B%22%20vertex%3D%221%22%20parent%3D%222%22%3E%3CmxGeometry%20y%3D%22140%22%20width%3D%22160%22%20height%3D%228%22%20as%3D%22geometry%22%2F%3E%3C%2FmxCell%3E%3CmxCell%20id%3D%225%22%20value%3D%22%2B%20method(type)%3A%20type%22%20style%3D%22text%3BstrokeColor%3Dnone%3BfillColor%3Dnone%3Balign%3Dleft%3BverticalAlign%3Dtop%3BspacingLeft%3D4%3BspacingRight%3D4%3Boverflow%3Dhidden%3Brotatable%3D0%3Bpoints%3D%5B%5B0%2C0.5%5D%2C%5B1%2C0.5%5D%5D%3BportConstraint%3Deastwest%3B%22%20vertex%3D%221%22%20parent%3D%222%22%3E%3CmxGeometry%20y%3D%22148%22%20width%3D%22160%22%20height%3D%2270%22%20as%3D%22geometry%22%2F%3E%3C%2FmxCell%3E%3C%2Froot%3E%3C%2FmxGraphModel%3E&lt;/span&gt;" style="text;html=1;align=center;verticalAlign=middle;resizable=0;points=[];autosize=1;strokeColor=none;fillColor=none;" parent="WIyWlLk6GJQsqaUBKTNV-1" vertex="1">
          <mxGeometry x="470" y="1025" width="20" height="30" as="geometry" />
        </mxCell>
        <mxCell id="VhWryRlksCPVGQsWvKfW-19" value="Payment" style="swimlane;fontStyle=1;align=center;verticalAlign=top;childLayout=stackLayout;horizontal=1;startSize=26;horizontalStack=0;resizeParent=1;resizeParentMax=0;resizeLast=0;collapsible=1;marginBottom=0;" parent="WIyWlLk6GJQsqaUBKTNV-1" vertex="1">
          <mxGeometry x="200" y="1080" width="160" height="218" as="geometry" />
        </mxCell>
        <mxCell id="VhWryRlksCPVGQsWvKfW-20" value="- invoice_Id : string&#xa;- date : date/time&#xa;- amount : string&#xa;- email : string&#xa;- district : string&#xa;- NIC : string&#xa;- contact_no : string&#xa;" style="text;strokeColor=none;fillColor=none;align=left;verticalAlign=top;spacingLeft=4;spacingRight=4;overflow=hidden;rotatable=0;points=[[0,0.5],[1,0.5]];portConstraint=eastwest;" parent="VhWryRlksCPVGQsWvKfW-19" vertex="1">
          <mxGeometry y="26" width="160" height="114" as="geometry" />
        </mxCell>
        <mxCell id="VhWryRlksCPVGQsWvKfW-21" value="" style="line;strokeWidth=1;fillColor=none;align=left;verticalAlign=middle;spacingTop=-1;spacingLeft=3;spacingRight=3;rotatable=0;labelPosition=right;points=[];portConstraint=eastwest;strokeColor=inherit;" parent="VhWryRlksCPVGQsWvKfW-19" vertex="1">
          <mxGeometry y="140" width="160" height="8" as="geometry" />
        </mxCell>
        <mxCell id="VhWryRlksCPVGQsWvKfW-22" value="+ method(type): type" style="text;strokeColor=none;fillColor=none;align=left;verticalAlign=top;spacingLeft=4;spacingRight=4;overflow=hidden;rotatable=0;points=[[0,0.5],[1,0.5]];portConstraint=eastwest;" parent="VhWryRlksCPVGQsWvKfW-19" vertex="1">
          <mxGeometry y="148" width="160" height="70" as="geometry" />
        </mxCell>
        <mxCell id="VhWryRlksCPVGQsWvKfW-23" value="Service Provider" style="swimlane;fontStyle=1;align=center;verticalAlign=top;childLayout=stackLayout;horizontal=1;startSize=26;horizontalStack=0;resizeParent=1;resizeParentMax=0;resizeLast=0;collapsible=1;marginBottom=0;" parent="WIyWlLk6GJQsqaUBKTNV-1" vertex="1">
          <mxGeometry x="-10" y="560" width="160" height="258" as="geometry" />
        </mxCell>
        <mxCell id="VhWryRlksCPVGQsWvKfW-24" value="- bussiness_Reg_Id : string&#xa;- name : string&#xa;- password : string&#xa;- email : string&#xa;- district : string&#xa;- sp_Category : string&#xa;- contact_no : string&#xa;&#xa;" style="text;strokeColor=none;fillColor=none;align=left;verticalAlign=top;spacingLeft=4;spacingRight=4;overflow=hidden;rotatable=0;points=[[0,0.5],[1,0.5]];portConstraint=eastwest;" parent="VhWryRlksCPVGQsWvKfW-23" vertex="1">
          <mxGeometry y="26" width="160" height="154" as="geometry" />
        </mxCell>
        <mxCell id="VhWryRlksCPVGQsWvKfW-25" value="" style="line;strokeWidth=1;fillColor=none;align=left;verticalAlign=middle;spacingTop=-1;spacingLeft=3;spacingRight=3;rotatable=0;labelPosition=right;points=[];portConstraint=eastwest;strokeColor=inherit;" parent="VhWryRlksCPVGQsWvKfW-23" vertex="1">
          <mxGeometry y="180" width="160" height="8" as="geometry" />
        </mxCell>
        <mxCell id="VhWryRlksCPVGQsWvKfW-26" value="+ method(type): type" style="text;strokeColor=none;fillColor=none;align=left;verticalAlign=top;spacingLeft=4;spacingRight=4;overflow=hidden;rotatable=0;points=[[0,0.5],[1,0.5]];portConstraint=eastwest;" parent="VhWryRlksCPVGQsWvKfW-23" vertex="1">
          <mxGeometry y="188" width="160" height="70" as="geometry" />
        </mxCell>
        <mxCell id="VhWryRlksCPVGQsWvKfW-27" value="Admin" style="swimlane;fontStyle=1;align=center;verticalAlign=top;childLayout=stackLayout;horizontal=1;startSize=26;horizontalStack=0;resizeParent=1;resizeParentMax=0;resizeLast=0;collapsible=1;marginBottom=0;" parent="WIyWlLk6GJQsqaUBKTNV-1" vertex="1">
          <mxGeometry y="890" width="160" height="258" as="geometry" />
        </mxCell>
        <mxCell id="VhWryRlksCPVGQsWvKfW-28" value="- admin_Id : string&#xa;- name : string&#xa;- password : string&#xa;- email : string&#xa;&#xa;" style="text;strokeColor=none;fillColor=none;align=left;verticalAlign=top;spacingLeft=4;spacingRight=4;overflow=hidden;rotatable=0;points=[[0,0.5],[1,0.5]];portConstraint=eastwest;" parent="VhWryRlksCPVGQsWvKfW-27" vertex="1">
          <mxGeometry y="26" width="160" height="154" as="geometry" />
        </mxCell>
        <mxCell id="VhWryRlksCPVGQsWvKfW-29" value="" style="line;strokeWidth=1;fillColor=none;align=left;verticalAlign=middle;spacingTop=-1;spacingLeft=3;spacingRight=3;rotatable=0;labelPosition=right;points=[];portConstraint=eastwest;strokeColor=inherit;" parent="VhWryRlksCPVGQsWvKfW-27" vertex="1">
          <mxGeometry y="180" width="160" height="8" as="geometry" />
        </mxCell>
        <mxCell id="VhWryRlksCPVGQsWvKfW-30" value="+ method(type): type" style="text;strokeColor=none;fillColor=none;align=left;verticalAlign=top;spacingLeft=4;spacingRight=4;overflow=hidden;rotatable=0;points=[[0,0.5],[1,0.5]];portConstraint=eastwest;" parent="VhWryRlksCPVGQsWvKfW-27" vertex="1">
          <mxGeometry y="188" width="160" height="70" as="geometry" />
        </mxCell>
        <mxCell id="bg8O6H1CbJyZe9uZO15N-1" value="Admin" style="swimlane;fontStyle=1;align=center;verticalAlign=top;childLayout=stackLayout;horizontal=1;startSize=26;horizontalStack=0;resizeParent=1;resizeParentMax=0;resizeLast=0;collapsible=1;marginBottom=0;whiteSpace=wrap;html=1;" parent="WIyWlLk6GJQsqaUBKTNV-1" vertex="1">
          <mxGeometry x="-573" y="680" width="183" height="140" as="geometry" />
        </mxCell>
        <mxCell id="bg8O6H1CbJyZe9uZO15N-2" value="+ adminModel: array&lt;br&gt;+ userModel: array&lt;br&gt;+ OTPModel: array" style="text;strokeColor=none;fillColor=none;align=left;verticalAlign=top;spacingLeft=4;spacingRight=4;overflow=hidden;rotatable=0;points=[[0,0.5],[1,0.5]];portConstraint=eastwest;whiteSpace=wrap;html=1;" parent="bg8O6H1CbJyZe9uZO15N-1" vertex="1">
          <mxGeometry y="26" width="183" height="64" as="geometry" />
        </mxCell>
        <mxCell id="bg8O6H1CbJyZe9uZO15N-3" value="" style="line;strokeWidth=1;fillColor=none;align=left;verticalAlign=middle;spacingTop=-1;spacingLeft=3;spacingRight=3;rotatable=0;labelPosition=right;points=[];portConstraint=eastwest;strokeColor=inherit;" parent="bg8O6H1CbJyZe9uZO15N-1" vertex="1">
          <mxGeometry y="90" width="183" height="8" as="geometry" />
        </mxCell>
        <mxCell id="bg8O6H1CbJyZe9uZO15N-4" value="+ register()" style="text;strokeColor=none;fillColor=none;align=left;verticalAlign=top;spacingLeft=4;spacingRight=4;overflow=hidden;rotatable=0;points=[[0,0.5],[1,0.5]];portConstraint=eastwest;whiteSpace=wrap;html=1;" parent="bg8O6H1CbJyZe9uZO15N-1" vertex="1">
          <mxGeometry y="98" width="183" height="42" as="geometry" />
        </mxCell>
      </root>
    </mxGraphModel>
  </diagram>
  <diagram id="txJVnOhAkflerKSUkFfj" name="Page-2">
    <mxGraphModel dx="6050" dy="1743" grid="1" gridSize="10" guides="1" tooltips="1" connect="1" arrows="1" fold="1" page="1" pageScale="1" pageWidth="850" pageHeight="1100" math="0" shadow="0">
      <root>
        <mxCell id="0" />
        <mxCell id="1" parent="0" />
        <mxCell id="NKSY7g7vqChwTgXgC4Q4-126" value="" style="rounded=0;whiteSpace=wrap;html=1;" vertex="1" parent="1">
          <mxGeometry x="-2530" y="20" width="1740" height="990" as="geometry" />
        </mxCell>
        <mxCell id="NKSY7g7vqChwTgXgC4Q4-111" value="" style="rounded=0;whiteSpace=wrap;html=1;" vertex="1" parent="1">
          <mxGeometry x="-2530" y="1100" width="1740" height="1160" as="geometry" />
        </mxCell>
        <mxCell id="z4cfBWZDvSzKU7RAXzXg-1" value="Admin" style="swimlane;fontStyle=1;align=center;verticalAlign=top;childLayout=stackLayout;horizontal=1;startSize=26;horizontalStack=0;resizeParent=1;resizeParentMax=0;resizeLast=0;collapsible=1;marginBottom=0;whiteSpace=wrap;html=1;" parent="1" vertex="1">
          <mxGeometry x="-2170" y="1380" width="183" height="140" as="geometry" />
        </mxCell>
        <mxCell id="z4cfBWZDvSzKU7RAXzXg-2" value="+ adminModel: array&lt;br&gt;+ userModel: array&lt;br&gt;+ OTPModel: array" style="text;strokeColor=none;fillColor=none;align=left;verticalAlign=top;spacingLeft=4;spacingRight=4;overflow=hidden;rotatable=0;points=[[0,0.5],[1,0.5]];portConstraint=eastwest;whiteSpace=wrap;html=1;" parent="z4cfBWZDvSzKU7RAXzXg-1" vertex="1">
          <mxGeometry y="26" width="183" height="64" as="geometry" />
        </mxCell>
        <mxCell id="z4cfBWZDvSzKU7RAXzXg-3" value="" style="line;strokeWidth=1;fillColor=none;align=left;verticalAlign=middle;spacingTop=-1;spacingLeft=3;spacingRight=3;rotatable=0;labelPosition=right;points=[];portConstraint=eastwest;strokeColor=inherit;" parent="z4cfBWZDvSzKU7RAXzXg-1" vertex="1">
          <mxGeometry y="90" width="183" height="8" as="geometry" />
        </mxCell>
        <mxCell id="z4cfBWZDvSzKU7RAXzXg-4" value="+ register()" style="text;strokeColor=none;fillColor=none;align=left;verticalAlign=top;spacingLeft=4;spacingRight=4;overflow=hidden;rotatable=0;points=[[0,0.5],[1,0.5]];portConstraint=eastwest;whiteSpace=wrap;html=1;" parent="z4cfBWZDvSzKU7RAXzXg-1" vertex="1">
          <mxGeometry y="98" width="183" height="42" as="geometry" />
        </mxCell>
        <mxCell id="z4cfBWZDvSzKU7RAXzXg-5" value="AdminDashboard" style="swimlane;fontStyle=1;align=center;verticalAlign=top;childLayout=stackLayout;horizontal=1;startSize=26;horizontalStack=0;resizeParent=1;resizeParentMax=0;resizeLast=0;collapsible=1;marginBottom=0;whiteSpace=wrap;html=1;" parent="1" vertex="1">
          <mxGeometry x="-1767" y="1380" width="183" height="390" as="geometry" />
        </mxCell>
        <mxCell id="z4cfBWZDvSzKU7RAXzXg-6" value="+ adminModel: array&lt;br&gt;+ userModel: array&lt;br&gt;+ decoModel: array&lt;br&gt;+ customerModel: array&lt;br&gt;+ serviceProviderModel:array&lt;br&gt;+ hotelModel:array&lt;br&gt;+ bandModel:array&lt;br&gt;+ photographyModel:array&lt;br&gt;+ reservationModel:array" style="text;strokeColor=none;fillColor=none;align=left;verticalAlign=top;spacingLeft=4;spacingRight=4;overflow=hidden;rotatable=0;points=[[0,0.5],[1,0.5]];portConstraint=eastwest;whiteSpace=wrap;html=1;" parent="z4cfBWZDvSzKU7RAXzXg-5" vertex="1">
          <mxGeometry y="26" width="183" height="144" as="geometry" />
        </mxCell>
        <mxCell id="z4cfBWZDvSzKU7RAXzXg-7" value="" style="line;strokeWidth=1;fillColor=none;align=left;verticalAlign=middle;spacingTop=-1;spacingLeft=3;spacingRight=3;rotatable=0;labelPosition=right;points=[];portConstraint=eastwest;strokeColor=inherit;" parent="z4cfBWZDvSzKU7RAXzXg-5" vertex="1">
          <mxGeometry y="170" width="183" height="8" as="geometry" />
        </mxCell>
        <mxCell id="z4cfBWZDvSzKU7RAXzXg-8" value="+ home()&lt;br&gt;+ addpackages()&lt;br&gt;+ viewpackages()&lt;br&gt;+ viewservices()&lt;br&gt;+ profileSettings()&lt;br&gt;+ reviewCOmplaints()&lt;br&gt;+ chat()&lt;br&gt;+ chatWith()&lt;br&gt;+ viewOffers()&lt;br&gt;+ payment()&lt;br&gt;+ reports()&lt;br&gt;+ reservationlog()&lt;br&gt;+ userManagement()&lt;br&gt;+ logout()" style="text;strokeColor=none;fillColor=none;align=left;verticalAlign=top;spacingLeft=4;spacingRight=4;overflow=hidden;rotatable=0;points=[[0,0.5],[1,0.5]];portConstraint=eastwest;whiteSpace=wrap;html=1;" parent="z4cfBWZDvSzKU7RAXzXg-5" vertex="1">
          <mxGeometry y="178" width="183" height="212" as="geometry" />
        </mxCell>
        <mxCell id="z4cfBWZDvSzKU7RAXzXg-9" value="BandDashboard" style="swimlane;fontStyle=1;align=center;verticalAlign=top;childLayout=stackLayout;horizontal=1;startSize=26;horizontalStack=0;resizeParent=1;resizeParentMax=0;resizeLast=0;collapsible=1;marginBottom=0;whiteSpace=wrap;html=1;" parent="1" vertex="1">
          <mxGeometry x="-1970" y="1380" width="183" height="390" as="geometry" />
        </mxCell>
        <mxCell id="z4cfBWZDvSzKU7RAXzXg-10" value="+ adminModel: array&lt;br&gt;+ userModel: array&lt;br&gt;+ decoModel: array&lt;br&gt;+ customerModel: array&lt;br&gt;+ serviceProviderModel:array&lt;br&gt;+ hotelModel:array&lt;br&gt;+ bandModel:array&lt;br&gt;+ photographyModel:array&lt;br&gt;+ reservationModel:array" style="text;strokeColor=none;fillColor=none;align=left;verticalAlign=top;spacingLeft=4;spacingRight=4;overflow=hidden;rotatable=0;points=[[0,0.5],[1,0.5]];portConstraint=eastwest;whiteSpace=wrap;html=1;" parent="z4cfBWZDvSzKU7RAXzXg-9" vertex="1">
          <mxGeometry y="26" width="183" height="144" as="geometry" />
        </mxCell>
        <mxCell id="z4cfBWZDvSzKU7RAXzXg-11" value="" style="line;strokeWidth=1;fillColor=none;align=left;verticalAlign=middle;spacingTop=-1;spacingLeft=3;spacingRight=3;rotatable=0;labelPosition=right;points=[];portConstraint=eastwest;strokeColor=inherit;" parent="z4cfBWZDvSzKU7RAXzXg-9" vertex="1">
          <mxGeometry y="170" width="183" height="8" as="geometry" />
        </mxCell>
        <mxCell id="z4cfBWZDvSzKU7RAXzXg-12" value="+ home()&lt;br&gt;+ addservices()&lt;br&gt;+ viewservices()&lt;br&gt;+ profileSettings()&lt;br&gt;+ reviewCOmplaints()&lt;br&gt;+ chat()&lt;br&gt;+ chatWith()&lt;br&gt;+ reservationdetails()&lt;br&gt;+ payment()&lt;br&gt;+ reports()&lt;br&gt;+ reservationlog()&lt;br&gt;+ calendar()&lt;br&gt;+ logout()" style="text;strokeColor=none;fillColor=none;align=left;verticalAlign=top;spacingLeft=4;spacingRight=4;overflow=hidden;rotatable=0;points=[[0,0.5],[1,0.5]];portConstraint=eastwest;whiteSpace=wrap;html=1;" parent="z4cfBWZDvSzKU7RAXzXg-9" vertex="1">
          <mxGeometry y="178" width="183" height="212" as="geometry" />
        </mxCell>
        <mxCell id="z4cfBWZDvSzKU7RAXzXg-13" value="BandService" style="swimlane;fontStyle=1;align=center;verticalAlign=top;childLayout=stackLayout;horizontal=1;startSize=26;horizontalStack=0;resizeParent=1;resizeParentMax=0;resizeLast=0;collapsible=1;marginBottom=0;whiteSpace=wrap;html=1;" parent="1" vertex="1">
          <mxGeometry x="-1767" y="1790" width="183" height="170" as="geometry" />
        </mxCell>
        <mxCell id="z4cfBWZDvSzKU7RAXzXg-14" value="+ bandModel():array" style="text;strokeColor=none;fillColor=none;align=left;verticalAlign=top;spacingLeft=4;spacingRight=4;overflow=hidden;rotatable=0;points=[[0,0.5],[1,0.5]];portConstraint=eastwest;whiteSpace=wrap;html=1;" parent="z4cfBWZDvSzKU7RAXzXg-13" vertex="1">
          <mxGeometry y="26" width="183" height="34" as="geometry" />
        </mxCell>
        <mxCell id="z4cfBWZDvSzKU7RAXzXg-15" value="" style="line;strokeWidth=1;fillColor=none;align=left;verticalAlign=middle;spacingTop=-1;spacingLeft=3;spacingRight=3;rotatable=0;labelPosition=right;points=[];portConstraint=eastwest;strokeColor=inherit;" parent="z4cfBWZDvSzKU7RAXzXg-13" vertex="1">
          <mxGeometry y="60" width="183" height="8" as="geometry" />
        </mxCell>
        <mxCell id="z4cfBWZDvSzKU7RAXzXg-16" value="+ viewAllServices()&lt;br&gt;+ addNewService()&lt;br&gt;+ viewEachService()&lt;br&gt;+ editService()&lt;br&gt;+ activate()&lt;br&gt;+ deactivate()&lt;br&gt;" style="text;strokeColor=none;fillColor=none;align=left;verticalAlign=top;spacingLeft=4;spacingRight=4;overflow=hidden;rotatable=0;points=[[0,0.5],[1,0.5]];portConstraint=eastwest;whiteSpace=wrap;html=1;" parent="z4cfBWZDvSzKU7RAXzXg-13" vertex="1">
          <mxGeometry y="68" width="183" height="102" as="geometry" />
        </mxCell>
        <mxCell id="z4cfBWZDvSzKU7RAXzXg-21" value="Customer" style="swimlane;fontStyle=1;align=center;verticalAlign=top;childLayout=stackLayout;horizontal=1;startSize=26;horizontalStack=0;resizeParent=1;resizeParentMax=0;resizeLast=0;collapsible=1;marginBottom=0;whiteSpace=wrap;html=1;" parent="1" vertex="1">
          <mxGeometry x="-1567" y="1380" width="183" height="140" as="geometry" />
        </mxCell>
        <mxCell id="z4cfBWZDvSzKU7RAXzXg-22" value="+ customerModel():array&lt;br&gt;+userModel():array&lt;br&gt;+ OTPModel():array" style="text;strokeColor=none;fillColor=none;align=left;verticalAlign=top;spacingLeft=4;spacingRight=4;overflow=hidden;rotatable=0;points=[[0,0.5],[1,0.5]];portConstraint=eastwest;whiteSpace=wrap;html=1;" parent="z4cfBWZDvSzKU7RAXzXg-21" vertex="1">
          <mxGeometry y="26" width="183" height="64" as="geometry" />
        </mxCell>
        <mxCell id="z4cfBWZDvSzKU7RAXzXg-23" value="" style="line;strokeWidth=1;fillColor=none;align=left;verticalAlign=middle;spacingTop=-1;spacingLeft=3;spacingRight=3;rotatable=0;labelPosition=right;points=[];portConstraint=eastwest;strokeColor=inherit;" parent="z4cfBWZDvSzKU7RAXzXg-21" vertex="1">
          <mxGeometry y="90" width="183" height="8" as="geometry" />
        </mxCell>
        <mxCell id="z4cfBWZDvSzKU7RAXzXg-24" value="+ register()&lt;br&gt;+ changePassword()" style="text;strokeColor=none;fillColor=none;align=left;verticalAlign=top;spacingLeft=4;spacingRight=4;overflow=hidden;rotatable=0;points=[[0,0.5],[1,0.5]];portConstraint=eastwest;whiteSpace=wrap;html=1;" parent="z4cfBWZDvSzKU7RAXzXg-21" vertex="1">
          <mxGeometry y="98" width="183" height="42" as="geometry" />
        </mxCell>
        <mxCell id="z4cfBWZDvSzKU7RAXzXg-25" value="CustomerDashboard" style="swimlane;fontStyle=1;align=center;verticalAlign=top;childLayout=stackLayout;horizontal=1;startSize=26;horizontalStack=0;resizeParent=1;resizeParentMax=0;resizeLast=0;collapsible=1;marginBottom=0;whiteSpace=wrap;html=1;" parent="1" vertex="1">
          <mxGeometry x="-1560" y="1550" width="183" height="420" as="geometry" />
        </mxCell>
        <mxCell id="z4cfBWZDvSzKU7RAXzXg-26" value="+ packageModel: array&lt;br&gt;+ userModel: array&lt;br&gt;+ decoModel: array&lt;br&gt;+ customerModel: array&lt;br&gt;+ serviceProviderModel:array&lt;br&gt;+ hotelModel:array&lt;br&gt;+ bandModel:array&lt;br&gt;+ photographyModel:array&lt;br&gt;+ reservationModel:array" style="text;strokeColor=none;fillColor=none;align=left;verticalAlign=top;spacingLeft=4;spacingRight=4;overflow=hidden;rotatable=0;points=[[0,0.5],[1,0.5]];portConstraint=eastwest;whiteSpace=wrap;html=1;" parent="z4cfBWZDvSzKU7RAXzXg-25" vertex="1">
          <mxGeometry y="26" width="183" height="144" as="geometry" />
        </mxCell>
        <mxCell id="z4cfBWZDvSzKU7RAXzXg-27" value="" style="line;strokeWidth=1;fillColor=none;align=left;verticalAlign=middle;spacingTop=-1;spacingLeft=3;spacingRight=3;rotatable=0;labelPosition=right;points=[];portConstraint=eastwest;strokeColor=inherit;" parent="z4cfBWZDvSzKU7RAXzXg-25" vertex="1">
          <mxGeometry y="170" width="183" height="8" as="geometry" />
        </mxCell>
        <mxCell id="z4cfBWZDvSzKU7RAXzXg-28" value="+ home()&lt;br&gt;+ addreservation()&lt;br&gt;+ viewpackages()&lt;br&gt;+ viewservices()&lt;br&gt;+ profileSettings()&lt;br&gt;+ provideFeddback()&lt;br&gt;+ chat()&lt;br&gt;+ chatWith()&lt;br&gt;+ viewOffers()&lt;br&gt;+ payment()&lt;br&gt;+ paymentlog()&lt;br&gt;+ calendar()&lt;br&gt;+ reports()&lt;br&gt;+ reservationlog()&lt;br&gt;+ userManagement()&lt;br&gt;+ logout()" style="text;strokeColor=none;fillColor=none;align=left;verticalAlign=top;spacingLeft=4;spacingRight=4;overflow=hidden;rotatable=0;points=[[0,0.5],[1,0.5]];portConstraint=eastwest;whiteSpace=wrap;html=1;" parent="z4cfBWZDvSzKU7RAXzXg-25" vertex="1">
          <mxGeometry y="178" width="183" height="242" as="geometry" />
        </mxCell>
        <mxCell id="NKSY7g7vqChwTgXgC4Q4-1" value="DecoDashboard" style="swimlane;fontStyle=1;align=center;verticalAlign=top;childLayout=stackLayout;horizontal=1;startSize=26;horizontalStack=0;resizeParent=1;resizeParentMax=0;resizeLast=0;collapsible=1;marginBottom=0;whiteSpace=wrap;html=1;" vertex="1" parent="1">
          <mxGeometry x="-2170" y="1540" width="183" height="370" as="geometry" />
        </mxCell>
        <mxCell id="NKSY7g7vqChwTgXgC4Q4-2" value="+ adminModel: array&lt;br&gt;+ userModel: array&lt;br&gt;+ decoModel: array&lt;br&gt;+ customerModel: array&lt;br&gt;+ serviceProviderModel:array&lt;br&gt;+ hotelModel:array&lt;br&gt;+ bandModel:array&lt;br&gt;+ photographyModel:array&lt;br&gt;+ reservationModel:array" style="text;strokeColor=none;fillColor=none;align=left;verticalAlign=top;spacingLeft=4;spacingRight=4;overflow=hidden;rotatable=0;points=[[0,0.5],[1,0.5]];portConstraint=eastwest;whiteSpace=wrap;html=1;" vertex="1" parent="NKSY7g7vqChwTgXgC4Q4-1">
          <mxGeometry y="26" width="183" height="144" as="geometry" />
        </mxCell>
        <mxCell id="NKSY7g7vqChwTgXgC4Q4-3" value="" style="line;strokeWidth=1;fillColor=none;align=left;verticalAlign=middle;spacingTop=-1;spacingLeft=3;spacingRight=3;rotatable=0;labelPosition=right;points=[];portConstraint=eastwest;strokeColor=inherit;" vertex="1" parent="NKSY7g7vqChwTgXgC4Q4-1">
          <mxGeometry y="170" width="183" height="8" as="geometry" />
        </mxCell>
        <mxCell id="NKSY7g7vqChwTgXgC4Q4-4" value="+ home()&lt;br&gt;+ addservices()&lt;br&gt;+ viewservices()&lt;br&gt;+ profileSettings()&lt;br&gt;+ chat()&lt;br&gt;+ chatWith()&lt;br&gt;+ reservationdetails()&lt;br&gt;+ payment()&lt;br&gt;+ reports()&lt;br&gt;+ reservationlog()&lt;br&gt;+ calendar()&lt;br&gt;+ logout()" style="text;strokeColor=none;fillColor=none;align=left;verticalAlign=top;spacingLeft=4;spacingRight=4;overflow=hidden;rotatable=0;points=[[0,0.5],[1,0.5]];portConstraint=eastwest;whiteSpace=wrap;html=1;" vertex="1" parent="NKSY7g7vqChwTgXgC4Q4-1">
          <mxGeometry y="178" width="183" height="192" as="geometry" />
        </mxCell>
        <mxCell id="NKSY7g7vqChwTgXgC4Q4-5" value="DecoService" style="swimlane;fontStyle=1;align=center;verticalAlign=top;childLayout=stackLayout;horizontal=1;startSize=26;horizontalStack=0;resizeParent=1;resizeParentMax=0;resizeLast=0;collapsible=1;marginBottom=0;whiteSpace=wrap;html=1;" vertex="1" parent="1">
          <mxGeometry x="-1970" y="1790" width="183" height="170" as="geometry" />
        </mxCell>
        <mxCell id="NKSY7g7vqChwTgXgC4Q4-6" value="+ decoModel():array" style="text;strokeColor=none;fillColor=none;align=left;verticalAlign=top;spacingLeft=4;spacingRight=4;overflow=hidden;rotatable=0;points=[[0,0.5],[1,0.5]];portConstraint=eastwest;whiteSpace=wrap;html=1;" vertex="1" parent="NKSY7g7vqChwTgXgC4Q4-5">
          <mxGeometry y="26" width="183" height="34" as="geometry" />
        </mxCell>
        <mxCell id="NKSY7g7vqChwTgXgC4Q4-7" value="" style="line;strokeWidth=1;fillColor=none;align=left;verticalAlign=middle;spacingTop=-1;spacingLeft=3;spacingRight=3;rotatable=0;labelPosition=right;points=[];portConstraint=eastwest;strokeColor=inherit;" vertex="1" parent="NKSY7g7vqChwTgXgC4Q4-5">
          <mxGeometry y="60" width="183" height="8" as="geometry" />
        </mxCell>
        <mxCell id="NKSY7g7vqChwTgXgC4Q4-8" value="+ viewAllServices()&lt;br&gt;+ addNewService()&lt;br&gt;+ viewEachService()&lt;br&gt;+ editService()&lt;br&gt;+ activate()&lt;br&gt;+ deactivate()&lt;br&gt;" style="text;strokeColor=none;fillColor=none;align=left;verticalAlign=top;spacingLeft=4;spacingRight=4;overflow=hidden;rotatable=0;points=[[0,0.5],[1,0.5]];portConstraint=eastwest;whiteSpace=wrap;html=1;" vertex="1" parent="NKSY7g7vqChwTgXgC4Q4-5">
          <mxGeometry y="68" width="183" height="102" as="geometry" />
        </mxCell>
        <mxCell id="NKSY7g7vqChwTgXgC4Q4-9" value="HotelDashboard" style="swimlane;fontStyle=1;align=center;verticalAlign=top;childLayout=stackLayout;horizontal=1;startSize=26;horizontalStack=0;resizeParent=1;resizeParentMax=0;resizeLast=0;collapsible=1;marginBottom=0;whiteSpace=wrap;html=1;" vertex="1" parent="1">
          <mxGeometry x="-1363" y="1380" width="183" height="390" as="geometry" />
        </mxCell>
        <mxCell id="NKSY7g7vqChwTgXgC4Q4-10" value="+ adminModel: array&lt;br&gt;+ userModel: array&lt;br&gt;+ decoModel: array&lt;br&gt;+ customerModel: array&lt;br&gt;+ serviceProviderModel:array&lt;br&gt;+ hotelModel:array&lt;br&gt;+ bandModel:array&lt;br&gt;+ photographyModel:array&lt;br&gt;+ reservationModel:array" style="text;strokeColor=none;fillColor=none;align=left;verticalAlign=top;spacingLeft=4;spacingRight=4;overflow=hidden;rotatable=0;points=[[0,0.5],[1,0.5]];portConstraint=eastwest;whiteSpace=wrap;html=1;" vertex="1" parent="NKSY7g7vqChwTgXgC4Q4-9">
          <mxGeometry y="26" width="183" height="144" as="geometry" />
        </mxCell>
        <mxCell id="NKSY7g7vqChwTgXgC4Q4-11" value="" style="line;strokeWidth=1;fillColor=none;align=left;verticalAlign=middle;spacingTop=-1;spacingLeft=3;spacingRight=3;rotatable=0;labelPosition=right;points=[];portConstraint=eastwest;strokeColor=inherit;" vertex="1" parent="NKSY7g7vqChwTgXgC4Q4-9">
          <mxGeometry y="170" width="183" height="8" as="geometry" />
        </mxCell>
        <mxCell id="NKSY7g7vqChwTgXgC4Q4-12" value="+ home()&lt;br&gt;+ addservices()&lt;br&gt;+ viewservices()&lt;br&gt;+ profileSettings()&lt;br&gt;+ reviewCOmplaints()&lt;br&gt;+ chat()&lt;br&gt;+ chatWith()&lt;br&gt;+ reservationdetails()&lt;br&gt;+ payment()&lt;br&gt;+ reports()&lt;br&gt;+ reservationlog()&lt;br&gt;+ calendar()&lt;br&gt;+ logout()" style="text;strokeColor=none;fillColor=none;align=left;verticalAlign=top;spacingLeft=4;spacingRight=4;overflow=hidden;rotatable=0;points=[[0,0.5],[1,0.5]];portConstraint=eastwest;whiteSpace=wrap;html=1;" vertex="1" parent="NKSY7g7vqChwTgXgC4Q4-9">
          <mxGeometry y="178" width="183" height="212" as="geometry" />
        </mxCell>
        <mxCell id="NKSY7g7vqChwTgXgC4Q4-13" value="PhotographyDashboard" style="swimlane;fontStyle=1;align=center;verticalAlign=top;childLayout=stackLayout;horizontal=1;startSize=26;horizontalStack=0;resizeParent=1;resizeParentMax=0;resizeLast=0;collapsible=1;marginBottom=0;whiteSpace=wrap;html=1;" vertex="1" parent="1">
          <mxGeometry x="-1160" y="1380" width="183" height="390" as="geometry" />
        </mxCell>
        <mxCell id="NKSY7g7vqChwTgXgC4Q4-14" value="+ adminModel: array&lt;br&gt;+ userModel: array&lt;br&gt;+ decoModel: array&lt;br&gt;+ customerModel: array&lt;br&gt;+ serviceProviderModel:array&lt;br&gt;+ hotelModel:array&lt;br&gt;+ bandModel:array&lt;br&gt;+ photographyModel:array&lt;br&gt;+ reservationModel:array" style="text;strokeColor=none;fillColor=none;align=left;verticalAlign=top;spacingLeft=4;spacingRight=4;overflow=hidden;rotatable=0;points=[[0,0.5],[1,0.5]];portConstraint=eastwest;whiteSpace=wrap;html=1;" vertex="1" parent="NKSY7g7vqChwTgXgC4Q4-13">
          <mxGeometry y="26" width="183" height="144" as="geometry" />
        </mxCell>
        <mxCell id="NKSY7g7vqChwTgXgC4Q4-15" value="" style="line;strokeWidth=1;fillColor=none;align=left;verticalAlign=middle;spacingTop=-1;spacingLeft=3;spacingRight=3;rotatable=0;labelPosition=right;points=[];portConstraint=eastwest;strokeColor=inherit;" vertex="1" parent="NKSY7g7vqChwTgXgC4Q4-13">
          <mxGeometry y="170" width="183" height="8" as="geometry" />
        </mxCell>
        <mxCell id="NKSY7g7vqChwTgXgC4Q4-16" value="+ home()&lt;br&gt;+ addservices()&lt;br&gt;+ viewservices()&lt;br&gt;+ profileSettings()&lt;br&gt;+ reviewCOmplaints()&lt;br&gt;+ chat()&lt;br&gt;+ chatWith()&lt;br&gt;+ reservationdetails()&lt;br&gt;+ payment()&lt;br&gt;+ reports()&lt;br&gt;+ reservationlog()&lt;br&gt;+ calendar()&lt;br&gt;+ logout()" style="text;strokeColor=none;fillColor=none;align=left;verticalAlign=top;spacingLeft=4;spacingRight=4;overflow=hidden;rotatable=0;points=[[0,0.5],[1,0.5]];portConstraint=eastwest;whiteSpace=wrap;html=1;" vertex="1" parent="NKSY7g7vqChwTgXgC4Q4-13">
          <mxGeometry y="178" width="183" height="212" as="geometry" />
        </mxCell>
        <mxCell id="NKSY7g7vqChwTgXgC4Q4-17" value="HotelService" style="swimlane;fontStyle=1;align=center;verticalAlign=top;childLayout=stackLayout;horizontal=1;startSize=26;horizontalStack=0;resizeParent=1;resizeParentMax=0;resizeLast=0;collapsible=1;marginBottom=0;whiteSpace=wrap;html=1;" vertex="1" parent="1">
          <mxGeometry x="-1970" y="1985" width="183" height="170" as="geometry" />
        </mxCell>
        <mxCell id="NKSY7g7vqChwTgXgC4Q4-18" value="+ hotelModel():array" style="text;strokeColor=none;fillColor=none;align=left;verticalAlign=top;spacingLeft=4;spacingRight=4;overflow=hidden;rotatable=0;points=[[0,0.5],[1,0.5]];portConstraint=eastwest;whiteSpace=wrap;html=1;" vertex="1" parent="NKSY7g7vqChwTgXgC4Q4-17">
          <mxGeometry y="26" width="183" height="34" as="geometry" />
        </mxCell>
        <mxCell id="NKSY7g7vqChwTgXgC4Q4-19" value="" style="line;strokeWidth=1;fillColor=none;align=left;verticalAlign=middle;spacingTop=-1;spacingLeft=3;spacingRight=3;rotatable=0;labelPosition=right;points=[];portConstraint=eastwest;strokeColor=inherit;" vertex="1" parent="NKSY7g7vqChwTgXgC4Q4-17">
          <mxGeometry y="60" width="183" height="8" as="geometry" />
        </mxCell>
        <mxCell id="NKSY7g7vqChwTgXgC4Q4-20" value="+ viewAllServices()&lt;br&gt;+ addNewService()&lt;br&gt;+ viewEachService()&lt;br&gt;+ editService()&lt;br&gt;+ activate()&lt;br&gt;+ deactivate()&lt;br&gt;" style="text;strokeColor=none;fillColor=none;align=left;verticalAlign=top;spacingLeft=4;spacingRight=4;overflow=hidden;rotatable=0;points=[[0,0.5],[1,0.5]];portConstraint=eastwest;whiteSpace=wrap;html=1;" vertex="1" parent="NKSY7g7vqChwTgXgC4Q4-17">
          <mxGeometry y="68" width="183" height="102" as="geometry" />
        </mxCell>
        <mxCell id="NKSY7g7vqChwTgXgC4Q4-21" value="PhotographyService" style="swimlane;fontStyle=1;align=center;verticalAlign=top;childLayout=stackLayout;horizontal=1;startSize=26;horizontalStack=0;resizeParent=1;resizeParentMax=0;resizeLast=0;collapsible=1;marginBottom=0;whiteSpace=wrap;html=1;" vertex="1" parent="1">
          <mxGeometry x="-1160" y="1790" width="183" height="170" as="geometry" />
        </mxCell>
        <mxCell id="NKSY7g7vqChwTgXgC4Q4-22" value="+ photoModel():array" style="text;strokeColor=none;fillColor=none;align=left;verticalAlign=top;spacingLeft=4;spacingRight=4;overflow=hidden;rotatable=0;points=[[0,0.5],[1,0.5]];portConstraint=eastwest;whiteSpace=wrap;html=1;" vertex="1" parent="NKSY7g7vqChwTgXgC4Q4-21">
          <mxGeometry y="26" width="183" height="34" as="geometry" />
        </mxCell>
        <mxCell id="NKSY7g7vqChwTgXgC4Q4-23" value="" style="line;strokeWidth=1;fillColor=none;align=left;verticalAlign=middle;spacingTop=-1;spacingLeft=3;spacingRight=3;rotatable=0;labelPosition=right;points=[];portConstraint=eastwest;strokeColor=inherit;" vertex="1" parent="NKSY7g7vqChwTgXgC4Q4-21">
          <mxGeometry y="60" width="183" height="8" as="geometry" />
        </mxCell>
        <mxCell id="NKSY7g7vqChwTgXgC4Q4-24" value="+ viewAllServices()&lt;br&gt;+ addNewService()&lt;br&gt;+ viewEachService()&lt;br&gt;+ editService()&lt;br&gt;+ activate()&lt;br&gt;+ deactivate()&lt;br&gt;" style="text;strokeColor=none;fillColor=none;align=left;verticalAlign=top;spacingLeft=4;spacingRight=4;overflow=hidden;rotatable=0;points=[[0,0.5],[1,0.5]];portConstraint=eastwest;whiteSpace=wrap;html=1;" vertex="1" parent="NKSY7g7vqChwTgXgC4Q4-21">
          <mxGeometry y="68" width="183" height="102" as="geometry" />
        </mxCell>
        <mxCell id="NKSY7g7vqChwTgXgC4Q4-25" value="Packages" style="swimlane;fontStyle=1;align=center;verticalAlign=top;childLayout=stackLayout;horizontal=1;startSize=26;horizontalStack=0;resizeParent=1;resizeParentMax=0;resizeLast=0;collapsible=1;marginBottom=0;whiteSpace=wrap;html=1;" vertex="1" parent="1">
          <mxGeometry x="-1363" y="1790" width="183" height="230" as="geometry" />
        </mxCell>
        <mxCell id="NKSY7g7vqChwTgXgC4Q4-26" value="+ packageModel():array&lt;br&gt;+ decoModel():Array&lt;br&gt;+ serviceProviderModel:array&lt;br&gt;+ adminModel:array&lt;br&gt;+ bandModel:array&lt;br&gt;+ photographyModel:array" style="text;strokeColor=none;fillColor=none;align=left;verticalAlign=top;spacingLeft=4;spacingRight=4;overflow=hidden;rotatable=0;points=[[0,0.5],[1,0.5]];portConstraint=eastwest;whiteSpace=wrap;html=1;" vertex="1" parent="NKSY7g7vqChwTgXgC4Q4-25">
          <mxGeometry y="26" width="183" height="94" as="geometry" />
        </mxCell>
        <mxCell id="NKSY7g7vqChwTgXgC4Q4-27" value="" style="line;strokeWidth=1;fillColor=none;align=left;verticalAlign=middle;spacingTop=-1;spacingLeft=3;spacingRight=3;rotatable=0;labelPosition=right;points=[];portConstraint=eastwest;strokeColor=inherit;" vertex="1" parent="NKSY7g7vqChwTgXgC4Q4-25">
          <mxGeometry y="120" width="183" height="8" as="geometry" />
        </mxCell>
        <mxCell id="NKSY7g7vqChwTgXgC4Q4-28" value="+ viewAllPackages()&lt;br&gt;+ addNewPackage()&lt;br&gt;+ viewEachPackage()&lt;br&gt;+ editPackage()&lt;br&gt;+ activate()&lt;br&gt;+ deactivate()" style="text;strokeColor=none;fillColor=none;align=left;verticalAlign=top;spacingLeft=4;spacingRight=4;overflow=hidden;rotatable=0;points=[[0,0.5],[1,0.5]];portConstraint=eastwest;whiteSpace=wrap;html=1;" vertex="1" parent="NKSY7g7vqChwTgXgC4Q4-25">
          <mxGeometry y="128" width="183" height="102" as="geometry" />
        </mxCell>
        <mxCell id="NKSY7g7vqChwTgXgC4Q4-29" value="ServiceProviderDashboard" style="swimlane;fontStyle=1;align=center;verticalAlign=top;childLayout=stackLayout;horizontal=1;startSize=26;horizontalStack=0;resizeParent=1;resizeParentMax=0;resizeLast=0;collapsible=1;marginBottom=0;whiteSpace=wrap;html=1;" vertex="1" parent="1">
          <mxGeometry x="-1560" y="2000" width="183" height="140" as="geometry" />
        </mxCell>
        <mxCell id="NKSY7g7vqChwTgXgC4Q4-30" value="+ ServiceProviderModel: array&lt;br&gt;+ userModel: array&lt;br&gt;+ OTPModel: array" style="text;strokeColor=none;fillColor=none;align=left;verticalAlign=top;spacingLeft=4;spacingRight=4;overflow=hidden;rotatable=0;points=[[0,0.5],[1,0.5]];portConstraint=eastwest;whiteSpace=wrap;html=1;" vertex="1" parent="NKSY7g7vqChwTgXgC4Q4-29">
          <mxGeometry y="26" width="183" height="64" as="geometry" />
        </mxCell>
        <mxCell id="NKSY7g7vqChwTgXgC4Q4-31" value="" style="line;strokeWidth=1;fillColor=none;align=left;verticalAlign=middle;spacingTop=-1;spacingLeft=3;spacingRight=3;rotatable=0;labelPosition=right;points=[];portConstraint=eastwest;strokeColor=inherit;" vertex="1" parent="NKSY7g7vqChwTgXgC4Q4-29">
          <mxGeometry y="90" width="183" height="8" as="geometry" />
        </mxCell>
        <mxCell id="NKSY7g7vqChwTgXgC4Q4-32" value="+ register()" style="text;strokeColor=none;fillColor=none;align=left;verticalAlign=top;spacingLeft=4;spacingRight=4;overflow=hidden;rotatable=0;points=[[0,0.5],[1,0.5]];portConstraint=eastwest;whiteSpace=wrap;html=1;" vertex="1" parent="NKSY7g7vqChwTgXgC4Q4-29">
          <mxGeometry y="98" width="183" height="42" as="geometry" />
        </mxCell>
        <mxCell id="NKSY7g7vqChwTgXgC4Q4-33" value="User" style="swimlane;fontStyle=1;align=center;verticalAlign=top;childLayout=stackLayout;horizontal=1;startSize=26;horizontalStack=0;resizeParent=1;resizeParentMax=0;resizeLast=0;collapsible=1;marginBottom=0;whiteSpace=wrap;html=1;" vertex="1" parent="1">
          <mxGeometry x="-2170" y="1930" width="183" height="280" as="geometry" />
        </mxCell>
        <mxCell id="NKSY7g7vqChwTgXgC4Q4-34" value="+ ServiceProviderModel: array&lt;br&gt;+ userModel: array&lt;br&gt;+ OTPModel: array&lt;br&gt;+ customerModel:array&lt;br&gt;+ adminModel:array" style="text;strokeColor=none;fillColor=none;align=left;verticalAlign=top;spacingLeft=4;spacingRight=4;overflow=hidden;rotatable=0;points=[[0,0.5],[1,0.5]];portConstraint=eastwest;whiteSpace=wrap;html=1;" vertex="1" parent="NKSY7g7vqChwTgXgC4Q4-33">
          <mxGeometry y="26" width="183" height="84" as="geometry" />
        </mxCell>
        <mxCell id="NKSY7g7vqChwTgXgC4Q4-35" value="" style="line;strokeWidth=1;fillColor=none;align=left;verticalAlign=middle;spacingTop=-1;spacingLeft=3;spacingRight=3;rotatable=0;labelPosition=right;points=[];portConstraint=eastwest;strokeColor=inherit;" vertex="1" parent="NKSY7g7vqChwTgXgC4Q4-33">
          <mxGeometry y="110" width="183" height="8" as="geometry" />
        </mxCell>
        <mxCell id="NKSY7g7vqChwTgXgC4Q4-36" value="+ signin()&lt;br&gt;+ resetPassword()&lt;br&gt;+ createUserSession()&lt;br&gt;+ provideInitialView()&lt;br&gt;+ getUserData()&lt;br&gt;+ checkFailedAttempts()&lt;br&gt;+ signOut()&lt;br&gt;+ accountStare()&lt;br&gt;+ policy()&lt;br&gt;+ profilePictureUpload()" style="text;strokeColor=none;fillColor=none;align=left;verticalAlign=top;spacingLeft=4;spacingRight=4;overflow=hidden;rotatable=0;points=[[0,0.5],[1,0.5]];portConstraint=eastwest;whiteSpace=wrap;html=1;" vertex="1" parent="NKSY7g7vqChwTgXgC4Q4-33">
          <mxGeometry y="118" width="183" height="162" as="geometry" />
        </mxCell>
        <mxCell id="NKSY7g7vqChwTgXgC4Q4-37" value="BaseChatController" style="swimlane;fontStyle=1;align=center;verticalAlign=top;childLayout=stackLayout;horizontal=1;startSize=26;horizontalStack=0;resizeParent=1;resizeParentMax=0;resizeLast=0;collapsible=1;marginBottom=0;whiteSpace=wrap;html=1;" vertex="1" parent="1">
          <mxGeometry x="-2465" y="1180" width="183" height="100" as="geometry" />
        </mxCell>
        <mxCell id="NKSY7g7vqChwTgXgC4Q4-39" value="" style="line;strokeWidth=1;fillColor=none;align=left;verticalAlign=middle;spacingTop=-1;spacingLeft=3;spacingRight=3;rotatable=0;labelPosition=right;points=[];portConstraint=eastwest;strokeColor=inherit;" vertex="1" parent="NKSY7g7vqChwTgXgC4Q4-37">
          <mxGeometry y="26" width="183" height="8" as="geometry" />
        </mxCell>
        <mxCell id="NKSY7g7vqChwTgXgC4Q4-40" value="+ index()&lt;br&gt;+ renderView()&lt;br&gt;+ renderPartial()&lt;br&gt;+ loadModel()" style="text;strokeColor=none;fillColor=none;align=left;verticalAlign=top;spacingLeft=4;spacingRight=4;overflow=hidden;rotatable=0;points=[[0,0.5],[1,0.5]];portConstraint=eastwest;whiteSpace=wrap;html=1;" vertex="1" parent="NKSY7g7vqChwTgXgC4Q4-37">
          <mxGeometry y="34" width="183" height="66" as="geometry" />
        </mxCell>
        <mxCell id="NKSY7g7vqChwTgXgC4Q4-41" value="Controller" style="swimlane;fontStyle=1;align=center;verticalAlign=top;childLayout=stackLayout;horizontal=1;startSize=26;horizontalStack=0;resizeParent=1;resizeParentMax=0;resizeLast=0;collapsible=1;marginBottom=0;whiteSpace=wrap;html=1;" vertex="1" parent="1">
          <mxGeometry x="-1660" y="1180" width="183" height="100" as="geometry" />
        </mxCell>
        <mxCell id="NKSY7g7vqChwTgXgC4Q4-42" value="" style="line;strokeWidth=1;fillColor=none;align=left;verticalAlign=middle;spacingTop=-1;spacingLeft=3;spacingRight=3;rotatable=0;labelPosition=right;points=[];portConstraint=eastwest;strokeColor=inherit;" vertex="1" parent="NKSY7g7vqChwTgXgC4Q4-41">
          <mxGeometry y="26" width="183" height="8" as="geometry" />
        </mxCell>
        <mxCell id="NKSY7g7vqChwTgXgC4Q4-43" value="+ model()&lt;br&gt;+ view()&lt;br&gt;+ notFound()" style="text;strokeColor=none;fillColor=none;align=left;verticalAlign=top;spacingLeft=4;spacingRight=4;overflow=hidden;rotatable=0;points=[[0,0.5],[1,0.5]];portConstraint=eastwest;whiteSpace=wrap;html=1;" vertex="1" parent="NKSY7g7vqChwTgXgC4Q4-41">
          <mxGeometry y="34" width="183" height="66" as="geometry" />
        </mxCell>
        <mxCell id="NKSY7g7vqChwTgXgC4Q4-44" value="UserModel" style="swimlane;fontStyle=1;align=center;verticalAlign=top;childLayout=stackLayout;horizontal=1;startSize=26;horizontalStack=0;resizeParent=1;resizeParentMax=0;resizeLast=0;collapsible=1;marginBottom=0;whiteSpace=wrap;html=1;" vertex="1" parent="1">
          <mxGeometry x="-1536" y="520" width="183" height="240" as="geometry" />
        </mxCell>
        <mxCell id="NKSY7g7vqChwTgXgC4Q4-45" value="" style="line;strokeWidth=1;fillColor=none;align=left;verticalAlign=middle;spacingTop=-1;spacingLeft=3;spacingRight=3;rotatable=0;labelPosition=right;points=[];portConstraint=eastwest;strokeColor=inherit;" vertex="1" parent="NKSY7g7vqChwTgXgC4Q4-44">
          <mxGeometry y="26" width="183" height="8" as="geometry" />
        </mxCell>
        <mxCell id="NKSY7g7vqChwTgXgC4Q4-46" value="+ registerUser()&lt;br&gt;+ registerChatUser()&lt;br&gt;+ setChatUserOffline()&lt;br&gt;+ setChatUserStatus()&lt;br&gt;+updateImageURL()&lt;br&gt;+ getUser()&lt;br&gt;+ getAllGeneralUsers()&lt;br&gt;+ getUsersByUniqueID()&lt;br&gt;+ checkLoginExsists()&lt;br&gt;+ updatePassword()&lt;br&gt;+ getFailedAttempts()&lt;br&gt;+ resetFailedAttempts()&lt;br&gt;+ updateVerificationStatus()" style="text;strokeColor=none;fillColor=none;align=left;verticalAlign=top;spacingLeft=4;spacingRight=4;overflow=hidden;rotatable=0;points=[[0,0.5],[1,0.5]];portConstraint=eastwest;whiteSpace=wrap;html=1;" vertex="1" parent="NKSY7g7vqChwTgXgC4Q4-44">
          <mxGeometry y="34" width="183" height="206" as="geometry" />
        </mxCell>
        <mxCell id="NKSY7g7vqChwTgXgC4Q4-47" value="AdminModel" style="swimlane;fontStyle=1;align=center;verticalAlign=top;childLayout=stackLayout;horizontal=1;startSize=26;horizontalStack=0;resizeParent=1;resizeParentMax=0;resizeLast=0;collapsible=1;marginBottom=0;whiteSpace=wrap;html=1;" vertex="1" parent="1">
          <mxGeometry x="-2173" y="680" width="183" height="160" as="geometry" />
        </mxCell>
        <mxCell id="NKSY7g7vqChwTgXgC4Q4-48" value="" style="line;strokeWidth=1;fillColor=none;align=left;verticalAlign=middle;spacingTop=-1;spacingLeft=3;spacingRight=3;rotatable=0;labelPosition=right;points=[];portConstraint=eastwest;strokeColor=inherit;" vertex="1" parent="NKSY7g7vqChwTgXgC4Q4-47">
          <mxGeometry y="26" width="183" height="8" as="geometry" />
        </mxCell>
        <mxCell id="NKSY7g7vqChwTgXgC4Q4-49" value="+ registerAdmin()&lt;br&gt;+ getChatUsers()&lt;br&gt;+ getUser()&lt;br&gt;+ getAdminlUserData()&lt;br&gt;+ getAdminDetails()&lt;br&gt;+ checkAdminExsists()&lt;br&gt;+ getFeedback()" style="text;strokeColor=none;fillColor=none;align=left;verticalAlign=top;spacingLeft=4;spacingRight=4;overflow=hidden;rotatable=0;points=[[0,0.5],[1,0.5]];portConstraint=eastwest;whiteSpace=wrap;html=1;" vertex="1" parent="NKSY7g7vqChwTgXgC4Q4-47">
          <mxGeometry y="34" width="183" height="126" as="geometry" />
        </mxCell>
        <mxCell id="NKSY7g7vqChwTgXgC4Q4-50" value="BandModel" style="swimlane;fontStyle=1;align=center;verticalAlign=top;childLayout=stackLayout;horizontal=1;startSize=26;horizontalStack=0;resizeParent=1;resizeParentMax=0;resizeLast=0;collapsible=1;marginBottom=0;whiteSpace=wrap;html=1;" vertex="1" parent="1">
          <mxGeometry x="-1343" y="520" width="183" height="210" as="geometry" />
        </mxCell>
        <mxCell id="NKSY7g7vqChwTgXgC4Q4-51" value="" style="line;strokeWidth=1;fillColor=none;align=left;verticalAlign=middle;spacingTop=-1;spacingLeft=3;spacingRight=3;rotatable=0;labelPosition=right;points=[];portConstraint=eastwest;strokeColor=inherit;" vertex="1" parent="NKSY7g7vqChwTgXgC4Q4-50">
          <mxGeometry y="26" width="183" height="8" as="geometry" />
        </mxCell>
        <mxCell id="NKSY7g7vqChwTgXgC4Q4-52" value="+ addBandService()&lt;br&gt;+ getBandServiceDetails()&lt;br&gt;+ getBandServiceDetailsByID()&lt;br&gt;+ getServicesBySP()&lt;br&gt;+ editService()&lt;br&gt;+ getChatUsers()&lt;br&gt;+ getUserByUserId()&lt;br&gt;+ activate_deactivate()&lt;br&gt;+ getNumberofServices()&lt;br&gt;+ getPriceFromServiceID()" style="text;strokeColor=none;fillColor=none;align=left;verticalAlign=top;spacingLeft=4;spacingRight=4;overflow=hidden;rotatable=0;points=[[0,0.5],[1,0.5]];portConstraint=eastwest;whiteSpace=wrap;html=1;" vertex="1" parent="NKSY7g7vqChwTgXgC4Q4-50">
          <mxGeometry y="34" width="183" height="176" as="geometry" />
        </mxCell>
        <mxCell id="NKSY7g7vqChwTgXgC4Q4-53" value="DecoModel" style="swimlane;fontStyle=1;align=center;verticalAlign=top;childLayout=stackLayout;horizontal=1;startSize=26;horizontalStack=0;resizeParent=1;resizeParentMax=0;resizeLast=0;collapsible=1;marginBottom=0;whiteSpace=wrap;html=1;" vertex="1" parent="1">
          <mxGeometry x="-1950" y="520" width="183" height="210" as="geometry" />
        </mxCell>
        <mxCell id="NKSY7g7vqChwTgXgC4Q4-54" value="" style="line;strokeWidth=1;fillColor=none;align=left;verticalAlign=middle;spacingTop=-1;spacingLeft=3;spacingRight=3;rotatable=0;labelPosition=right;points=[];portConstraint=eastwest;strokeColor=inherit;" vertex="1" parent="NKSY7g7vqChwTgXgC4Q4-53">
          <mxGeometry y="26" width="183" height="8" as="geometry" />
        </mxCell>
        <mxCell id="NKSY7g7vqChwTgXgC4Q4-55" value="+ addDecoService()&lt;br&gt;+ getDecoServiceDetails()&lt;br&gt;+ getDecoServiceDetailsByID()&lt;br&gt;+ getServicesBySP()&lt;br&gt;+ editService()&lt;br&gt;+ getChatUsers()&lt;br&gt;+ getUserByUserId()&lt;br&gt;+ activate_deactivate()&lt;br&gt;+ getNumberofServices()&lt;br&gt;+ getPriceFromServiceID()" style="text;strokeColor=none;fillColor=none;align=left;verticalAlign=top;spacingLeft=4;spacingRight=4;overflow=hidden;rotatable=0;points=[[0,0.5],[1,0.5]];portConstraint=eastwest;whiteSpace=wrap;html=1;" vertex="1" parent="NKSY7g7vqChwTgXgC4Q4-53">
          <mxGeometry y="34" width="183" height="176" as="geometry" />
        </mxCell>
        <mxCell id="NKSY7g7vqChwTgXgC4Q4-59" value="PhotographyModel" style="swimlane;fontStyle=1;align=center;verticalAlign=top;childLayout=stackLayout;horizontal=1;startSize=26;horizontalStack=0;resizeParent=1;resizeParentMax=0;resizeLast=0;collapsible=1;marginBottom=0;whiteSpace=wrap;html=1;" vertex="1" parent="1">
          <mxGeometry x="-1343" y="748" width="183" height="210" as="geometry" />
        </mxCell>
        <mxCell id="NKSY7g7vqChwTgXgC4Q4-60" value="" style="line;strokeWidth=1;fillColor=none;align=left;verticalAlign=middle;spacingTop=-1;spacingLeft=3;spacingRight=3;rotatable=0;labelPosition=right;points=[];portConstraint=eastwest;strokeColor=inherit;" vertex="1" parent="NKSY7g7vqChwTgXgC4Q4-59">
          <mxGeometry y="26" width="183" height="8" as="geometry" />
        </mxCell>
        <mxCell id="NKSY7g7vqChwTgXgC4Q4-61" value="+ addPhotographyService()&lt;br&gt;+ getPhotoServiceDetails()&lt;br&gt;+ getPhotoServiceDetailsByID()&lt;br&gt;+ getServicesBySP()&lt;br&gt;+ editService()&lt;br&gt;+ getChatUsers()&lt;br&gt;+ getUserByUserId()&lt;br&gt;+ activate_deactivate()&lt;br&gt;+ getNumberofServices()&lt;br&gt;+ getPriceFromServiceID()" style="text;strokeColor=none;fillColor=none;align=left;verticalAlign=top;spacingLeft=4;spacingRight=4;overflow=hidden;rotatable=0;points=[[0,0.5],[1,0.5]];portConstraint=eastwest;whiteSpace=wrap;html=1;" vertex="1" parent="NKSY7g7vqChwTgXgC4Q4-59">
          <mxGeometry y="34" width="183" height="176" as="geometry" />
        </mxCell>
        <mxCell id="NKSY7g7vqChwTgXgC4Q4-62" value="ChatModel" style="swimlane;fontStyle=1;align=center;verticalAlign=top;childLayout=stackLayout;horizontal=1;startSize=26;horizontalStack=0;resizeParent=1;resizeParentMax=0;resizeLast=0;collapsible=1;marginBottom=0;whiteSpace=wrap;html=1;" vertex="1" parent="1">
          <mxGeometry x="-1030" y="330" width="183" height="140" as="geometry" />
        </mxCell>
        <mxCell id="NKSY7g7vqChwTgXgC4Q4-63" value="" style="line;strokeWidth=1;fillColor=none;align=left;verticalAlign=middle;spacingTop=-1;spacingLeft=3;spacingRight=3;rotatable=0;labelPosition=right;points=[];portConstraint=eastwest;strokeColor=inherit;" vertex="1" parent="NKSY7g7vqChwTgXgC4Q4-62">
          <mxGeometry y="26" width="183" height="8" as="geometry" />
        </mxCell>
        <mxCell id="NKSY7g7vqChwTgXgC4Q4-64" value="+ getAll()&lt;br&gt;+ findByID()&lt;br&gt;+ deleteByID()&lt;br&gt;+ store()&lt;br&gt;+ updateData()&lt;br&gt;+ getImgFromReciever()" style="text;strokeColor=none;fillColor=none;align=left;verticalAlign=top;spacingLeft=4;spacingRight=4;overflow=hidden;rotatable=0;points=[[0,0.5],[1,0.5]];portConstraint=eastwest;whiteSpace=wrap;html=1;" vertex="1" parent="NKSY7g7vqChwTgXgC4Q4-62">
          <mxGeometry y="34" width="183" height="106" as="geometry" />
        </mxCell>
        <mxCell id="NKSY7g7vqChwTgXgC4Q4-65" value="OTPManagementModel" style="swimlane;fontStyle=1;align=center;verticalAlign=top;childLayout=stackLayout;horizontal=1;startSize=26;horizontalStack=0;resizeParent=1;resizeParentMax=0;resizeLast=0;collapsible=1;marginBottom=0;whiteSpace=wrap;html=1;" vertex="1" parent="1">
          <mxGeometry x="-1536" y="783" width="183" height="140" as="geometry" />
        </mxCell>
        <mxCell id="NKSY7g7vqChwTgXgC4Q4-66" value="" style="line;strokeWidth=1;fillColor=none;align=left;verticalAlign=middle;spacingTop=-1;spacingLeft=3;spacingRight=3;rotatable=0;labelPosition=right;points=[];portConstraint=eastwest;strokeColor=inherit;" vertex="1" parent="NKSY7g7vqChwTgXgC4Q4-65">
          <mxGeometry y="26" width="183" height="8" as="geometry" />
        </mxCell>
        <mxCell id="NKSY7g7vqChwTgXgC4Q4-67" value="+ requestOTP()&lt;br&gt;+ storeOTP()&lt;br&gt;+ getOTP()&lt;br&gt;+ verifyOTP()&lt;br&gt;+ removeOTP()&lt;br&gt;+ generateNewOTP()" style="text;strokeColor=none;fillColor=none;align=left;verticalAlign=top;spacingLeft=4;spacingRight=4;overflow=hidden;rotatable=0;points=[[0,0.5],[1,0.5]];portConstraint=eastwest;whiteSpace=wrap;html=1;" vertex="1" parent="NKSY7g7vqChwTgXgC4Q4-65">
          <mxGeometry y="34" width="183" height="106" as="geometry" />
        </mxCell>
        <mxCell id="NKSY7g7vqChwTgXgC4Q4-68" value="CustomerModel" style="swimlane;fontStyle=1;align=center;verticalAlign=top;childLayout=stackLayout;horizontal=1;startSize=26;horizontalStack=0;resizeParent=1;resizeParentMax=0;resizeLast=0;collapsible=1;marginBottom=0;whiteSpace=wrap;html=1;" vertex="1" parent="1">
          <mxGeometry x="-1760" y="521" width="183" height="160" as="geometry" />
        </mxCell>
        <mxCell id="NKSY7g7vqChwTgXgC4Q4-69" value="" style="line;strokeWidth=1;fillColor=none;align=left;verticalAlign=middle;spacingTop=-1;spacingLeft=3;spacingRight=3;rotatable=0;labelPosition=right;points=[];portConstraint=eastwest;strokeColor=inherit;" vertex="1" parent="NKSY7g7vqChwTgXgC4Q4-68">
          <mxGeometry y="26" width="183" height="8" as="geometry" />
        </mxCell>
        <mxCell id="NKSY7g7vqChwTgXgC4Q4-70" value="+ registerCustomer()&lt;br&gt;+ checkCustomerExists()&lt;br&gt;+ getUser()&lt;br&gt;+ getCustomerlUserData()&lt;br&gt;+ getCustomerDetails()&lt;br&gt;+ provideFeedback()&lt;br&gt;+ getEvents()" style="text;strokeColor=none;fillColor=none;align=left;verticalAlign=top;spacingLeft=4;spacingRight=4;overflow=hidden;rotatable=0;points=[[0,0.5],[1,0.5]];portConstraint=eastwest;whiteSpace=wrap;html=1;" vertex="1" parent="NKSY7g7vqChwTgXgC4Q4-68">
          <mxGeometry y="34" width="183" height="126" as="geometry" />
        </mxCell>
        <mxCell id="NKSY7g7vqChwTgXgC4Q4-71" value="PackageModel" style="swimlane;fontStyle=1;align=center;verticalAlign=top;childLayout=stackLayout;horizontal=1;startSize=26;horizontalStack=0;resizeParent=1;resizeParentMax=0;resizeLast=0;collapsible=1;marginBottom=0;whiteSpace=wrap;html=1;" vertex="1" parent="1">
          <mxGeometry x="-2173" y="521" width="183" height="140" as="geometry" />
        </mxCell>
        <mxCell id="NKSY7g7vqChwTgXgC4Q4-72" value="" style="line;strokeWidth=1;fillColor=none;align=left;verticalAlign=middle;spacingTop=-1;spacingLeft=3;spacingRight=3;rotatable=0;labelPosition=right;points=[];portConstraint=eastwest;strokeColor=inherit;" vertex="1" parent="NKSY7g7vqChwTgXgC4Q4-71">
          <mxGeometry y="26" width="183" height="8" as="geometry" />
        </mxCell>
        <mxCell id="NKSY7g7vqChwTgXgC4Q4-73" value="+ addPackage()&lt;br&gt;+ getPackageDetails()&lt;br&gt;+ activate_Deactivate()&lt;br&gt;+ editPackageByID()&lt;br&gt;+ getPriceFromPackageID()" style="text;strokeColor=none;fillColor=none;align=left;verticalAlign=top;spacingLeft=4;spacingRight=4;overflow=hidden;rotatable=0;points=[[0,0.5],[1,0.5]];portConstraint=eastwest;whiteSpace=wrap;html=1;" vertex="1" parent="NKSY7g7vqChwTgXgC4Q4-71">
          <mxGeometry y="34" width="183" height="106" as="geometry" />
        </mxCell>
        <mxCell id="NKSY7g7vqChwTgXgC4Q4-74" value="ReservationModel" style="swimlane;fontStyle=1;align=center;verticalAlign=top;childLayout=stackLayout;horizontal=1;startSize=26;horizontalStack=0;resizeParent=1;resizeParentMax=0;resizeLast=0;collapsible=1;marginBottom=0;whiteSpace=wrap;html=1;" vertex="1" parent="1">
          <mxGeometry x="-2392" y="520" width="210" height="210" as="geometry" />
        </mxCell>
        <mxCell id="NKSY7g7vqChwTgXgC4Q4-75" value="" style="line;strokeWidth=1;fillColor=none;align=left;verticalAlign=middle;spacingTop=-1;spacingLeft=3;spacingRight=3;rotatable=0;labelPosition=right;points=[];portConstraint=eastwest;strokeColor=inherit;" vertex="1" parent="NKSY7g7vqChwTgXgC4Q4-74">
          <mxGeometry y="26" width="210" height="8" as="geometry" />
        </mxCell>
        <mxCell id="NKSY7g7vqChwTgXgC4Q4-76" value="+ addReservation()&lt;br&gt;+ getReservationDetails()&lt;br&gt;+ editReservation()&lt;br&gt;+ addEvent()&lt;br&gt;+ addPayment()&lt;br&gt;+ updateRvDetails()&lt;br&gt;+ getPackageDetails()&lt;br&gt;+ deleteEvent()&lt;br&gt;+ deletePayment()&lt;br&gt;+&amp;nbsp;deleteFromPackageConfirmation()&lt;br&gt;+&amp;nbsp;getPaymentLogDetails()&lt;br&gt;" style="text;strokeColor=none;fillColor=none;align=left;verticalAlign=top;spacingLeft=4;spacingRight=4;overflow=hidden;rotatable=0;points=[[0,0.5],[1,0.5]];portConstraint=eastwest;whiteSpace=wrap;html=1;" vertex="1" parent="NKSY7g7vqChwTgXgC4Q4-74">
          <mxGeometry y="34" width="210" height="176" as="geometry" />
        </mxCell>
        <mxCell id="NKSY7g7vqChwTgXgC4Q4-77" value="Model" style="swimlane;fontStyle=1;align=center;verticalAlign=top;childLayout=stackLayout;horizontal=1;startSize=26;horizontalStack=0;resizeParent=1;resizeParentMax=0;resizeLast=0;collapsible=1;marginBottom=0;whiteSpace=wrap;html=1;" vertex="1" parent="1">
          <mxGeometry x="-1850" y="80" width="183" height="270" as="geometry" />
        </mxCell>
        <mxCell id="NKSY7g7vqChwTgXgC4Q4-78" value="" style="line;strokeWidth=1;fillColor=none;align=left;verticalAlign=middle;spacingTop=-1;spacingLeft=3;spacingRight=3;rotatable=0;labelPosition=right;points=[];portConstraint=eastwest;strokeColor=inherit;" vertex="1" parent="NKSY7g7vqChwTgXgC4Q4-77">
          <mxGeometry y="26" width="183" height="8" as="geometry" />
        </mxCell>
        <mxCell id="NKSY7g7vqChwTgXgC4Q4-79" value="+ beginTransaction()&lt;br&gt;+ commit()&lt;br&gt;+ rollBack()&lt;br&gt;+ Query()&lt;br&gt;+ bind()&lt;br&gt;+ bindValues()&lt;br&gt;+ prepareColumnValues()&lt;br&gt;+ prepareSelectStatement()&lt;br&gt;+ getResultSet()&lt;br&gt;+ getSingle()&lt;br&gt;+ getRowCount()&lt;br&gt;+ insert()&lt;br&gt;+ delete()&lt;br&gt;+ update()&lt;br&gt;+ customQuery()" style="text;strokeColor=none;fillColor=none;align=left;verticalAlign=top;spacingLeft=4;spacingRight=4;overflow=hidden;rotatable=0;points=[[0,0.5],[1,0.5]];portConstraint=eastwest;whiteSpace=wrap;html=1;" vertex="1" parent="NKSY7g7vqChwTgXgC4Q4-77">
          <mxGeometry y="34" width="183" height="236" as="geometry" />
        </mxCell>
        <mxCell id="NKSY7g7vqChwTgXgC4Q4-80" value="ChatBaseModel" style="swimlane;fontStyle=1;align=center;verticalAlign=top;childLayout=stackLayout;horizontal=1;startSize=26;horizontalStack=0;resizeParent=1;resizeParentMax=0;resizeLast=0;collapsible=1;marginBottom=0;whiteSpace=wrap;html=1;" vertex="1" parent="1">
          <mxGeometry x="-1028.5" y="80" width="183" height="170" as="geometry" />
        </mxCell>
        <mxCell id="NKSY7g7vqChwTgXgC4Q4-81" value="" style="line;strokeWidth=1;fillColor=none;align=left;verticalAlign=middle;spacingTop=-1;spacingLeft=3;spacingRight=3;rotatable=0;labelPosition=right;points=[];portConstraint=eastwest;strokeColor=inherit;" vertex="1" parent="NKSY7g7vqChwTgXgC4Q4-80">
          <mxGeometry y="26" width="183" height="8" as="geometry" />
        </mxCell>
        <mxCell id="NKSY7g7vqChwTgXgC4Q4-82" value="+ create()&lt;br&gt;+ save()&lt;br&gt;+ update()&lt;br&gt;+ delete()&lt;br&gt;+ all()&lt;br&gt;+ find()&lt;br&gt;+ _query()&lt;br&gt;+ escape()" style="text;strokeColor=none;fillColor=none;align=left;verticalAlign=top;spacingLeft=4;spacingRight=4;overflow=hidden;rotatable=0;points=[[0,0.5],[1,0.5]];portConstraint=eastwest;whiteSpace=wrap;html=1;" vertex="1" parent="NKSY7g7vqChwTgXgC4Q4-80">
          <mxGeometry y="34" width="183" height="136" as="geometry" />
        </mxCell>
        <mxCell id="NKSY7g7vqChwTgXgC4Q4-83" value="ChatController" style="swimlane;fontStyle=1;align=center;verticalAlign=top;childLayout=stackLayout;horizontal=1;startSize=26;horizontalStack=0;resizeParent=1;resizeParentMax=0;resizeLast=0;collapsible=1;marginBottom=0;whiteSpace=wrap;html=1;" vertex="1" parent="1">
          <mxGeometry x="-2465" y="1380" width="183" height="150" as="geometry" />
        </mxCell>
        <mxCell id="NKSY7g7vqChwTgXgC4Q4-84" value="+ loadModel:array&lt;br&gt;+ chatModel:array" style="text;strokeColor=none;fillColor=none;align=left;verticalAlign=top;spacingLeft=4;spacingRight=4;overflow=hidden;rotatable=0;points=[[0,0.5],[1,0.5]];portConstraint=eastwest;whiteSpace=wrap;html=1;" vertex="1" parent="NKSY7g7vqChwTgXgC4Q4-83">
          <mxGeometry y="26" width="183" height="44" as="geometry" />
        </mxCell>
        <mxCell id="NKSY7g7vqChwTgXgC4Q4-85" value="" style="line;strokeWidth=1;fillColor=none;align=left;verticalAlign=middle;spacingTop=-1;spacingLeft=3;spacingRight=3;rotatable=0;labelPosition=right;points=[];portConstraint=eastwest;strokeColor=inherit;" vertex="1" parent="NKSY7g7vqChwTgXgC4Q4-83">
          <mxGeometry y="70" width="183" height="8" as="geometry" />
        </mxCell>
        <mxCell id="NKSY7g7vqChwTgXgC4Q4-86" value="+ index()&lt;br&gt;+ getChat()&lt;br&gt;+ actionAddChatItem()&lt;br&gt;+ actionGetChatItem()" style="text;strokeColor=none;fillColor=none;align=left;verticalAlign=top;spacingLeft=4;spacingRight=4;overflow=hidden;rotatable=0;points=[[0,0.5],[1,0.5]];portConstraint=eastwest;whiteSpace=wrap;html=1;" vertex="1" parent="NKSY7g7vqChwTgXgC4Q4-83">
          <mxGeometry y="78" width="183" height="72" as="geometry" />
        </mxCell>
        <mxCell id="NKSY7g7vqChwTgXgC4Q4-87" value="Extends" style="endArrow=block;endSize=16;endFill=0;html=1;rounded=0;exitX=0.5;exitY=0;exitDx=0;exitDy=0;entryX=0.502;entryY=1.041;entryDx=0;entryDy=0;entryPerimeter=0;" edge="1" parent="1" source="NKSY7g7vqChwTgXgC4Q4-83" target="NKSY7g7vqChwTgXgC4Q4-40">
          <mxGeometry width="160" relative="1" as="geometry">
            <mxPoint x="-1895" y="1310" as="sourcePoint" />
            <mxPoint x="-1735" y="1310" as="targetPoint" />
          </mxGeometry>
        </mxCell>
        <mxCell id="NKSY7g7vqChwTgXgC4Q4-89" value="Extends" style="endArrow=block;endSize=16;endFill=0;html=1;rounded=0;exitX=0.5;exitY=0;exitDx=0;exitDy=0;entryX=-0.022;entryY=0.911;entryDx=0;entryDy=0;entryPerimeter=0;" edge="1" parent="1" source="z4cfBWZDvSzKU7RAXzXg-1" target="NKSY7g7vqChwTgXgC4Q4-43">
          <mxGeometry width="160" relative="1" as="geometry">
            <mxPoint x="-1830" y="1440" as="sourcePoint" />
            <mxPoint x="-1670" y="1440" as="targetPoint" />
          </mxGeometry>
        </mxCell>
        <mxCell id="NKSY7g7vqChwTgXgC4Q4-90" value="Extends" style="endArrow=block;endSize=16;endFill=0;html=1;rounded=0;exitX=0.5;exitY=0;exitDx=0;exitDy=0;entryX=0.177;entryY=1.045;entryDx=0;entryDy=0;entryPerimeter=0;" edge="1" parent="1" source="z4cfBWZDvSzKU7RAXzXg-9" target="NKSY7g7vqChwTgXgC4Q4-43">
          <mxGeometry width="160" relative="1" as="geometry">
            <mxPoint x="-1640" y="1400" as="sourcePoint" />
            <mxPoint x="-1560" y="1280" as="targetPoint" />
            <Array as="points">
              <mxPoint x="-1730" y="1350" />
            </Array>
          </mxGeometry>
        </mxCell>
        <mxCell id="NKSY7g7vqChwTgXgC4Q4-94" value="Extends" style="endArrow=block;endSize=16;endFill=0;html=1;rounded=0;exitX=0.5;exitY=0;exitDx=0;exitDy=0;entryX=0.358;entryY=1.093;entryDx=0;entryDy=0;entryPerimeter=0;" edge="1" parent="1" source="z4cfBWZDvSzKU7RAXzXg-5" target="NKSY7g7vqChwTgXgC4Q4-43">
          <mxGeometry width="160" relative="1" as="geometry">
            <mxPoint x="-1580" y="1380" as="sourcePoint" />
            <mxPoint x="-1420" y="1380" as="targetPoint" />
          </mxGeometry>
        </mxCell>
        <mxCell id="NKSY7g7vqChwTgXgC4Q4-95" value="Extends" style="endArrow=block;endSize=16;endFill=0;html=1;rounded=0;entryX=0.532;entryY=1.076;entryDx=0;entryDy=0;entryPerimeter=0;exitX=0.5;exitY=0;exitDx=0;exitDy=0;" edge="1" parent="1" source="z4cfBWZDvSzKU7RAXzXg-21" target="NKSY7g7vqChwTgXgC4Q4-43">
          <mxGeometry width="160" relative="1" as="geometry">
            <mxPoint x="-1480" y="1380" as="sourcePoint" />
            <mxPoint x="-1420" y="1380" as="targetPoint" />
          </mxGeometry>
        </mxCell>
        <mxCell id="NKSY7g7vqChwTgXgC4Q4-96" value="Extends" style="endArrow=block;endSize=16;endFill=0;html=1;rounded=0;entryX=0.813;entryY=1.058;entryDx=0;entryDy=0;entryPerimeter=0;exitX=0.452;exitY=0.003;exitDx=0;exitDy=0;exitPerimeter=0;" edge="1" parent="1" source="NKSY7g7vqChwTgXgC4Q4-9" target="NKSY7g7vqChwTgXgC4Q4-43">
          <mxGeometry width="160" relative="1" as="geometry">
            <mxPoint x="-1580" y="1380" as="sourcePoint" />
            <mxPoint x="-1420" y="1380" as="targetPoint" />
            <Array as="points">
              <mxPoint x="-1420" y="1350" />
            </Array>
          </mxGeometry>
        </mxCell>
        <mxCell id="NKSY7g7vqChwTgXgC4Q4-97" value="Extends" style="endArrow=block;endSize=16;endFill=0;html=1;rounded=0;exitX=0.5;exitY=0;exitDx=0;exitDy=0;" edge="1" parent="1" source="NKSY7g7vqChwTgXgC4Q4-13">
          <mxGeometry width="160" relative="1" as="geometry">
            <mxPoint x="-1580" y="1380" as="sourcePoint" />
            <mxPoint x="-1470" y="1280" as="targetPoint" />
          </mxGeometry>
        </mxCell>
        <mxCell id="NKSY7g7vqChwTgXgC4Q4-99" value="Extends" style="endArrow=block;endSize=16;endFill=0;html=1;rounded=0;exitX=0;exitY=0.5;exitDx=0;exitDy=0;edgeStyle=orthogonalEdgeStyle;entryX=0;entryY=0.5;entryDx=0;entryDy=0;" edge="1" parent="1" source="NKSY7g7vqChwTgXgC4Q4-2" target="NKSY7g7vqChwTgXgC4Q4-43">
          <mxGeometry width="160" relative="1" as="geometry">
            <mxPoint x="-2100" y="1650" as="sourcePoint" />
            <mxPoint x="-1970" y="1078.6088230298913" as="targetPoint" />
          </mxGeometry>
        </mxCell>
        <mxCell id="NKSY7g7vqChwTgXgC4Q4-100" value="Controller" style="swimlane;fontStyle=1;align=center;verticalAlign=top;childLayout=stackLayout;horizontal=1;startSize=26;horizontalStack=0;resizeParent=1;resizeParentMax=0;resizeLast=0;collapsible=1;marginBottom=0;whiteSpace=wrap;html=1;" vertex="1" parent="1">
          <mxGeometry x="-1767" y="2020" width="183" height="100" as="geometry" />
        </mxCell>
        <mxCell id="NKSY7g7vqChwTgXgC4Q4-101" value="" style="line;strokeWidth=1;fillColor=none;align=left;verticalAlign=middle;spacingTop=-1;spacingLeft=3;spacingRight=3;rotatable=0;labelPosition=right;points=[];portConstraint=eastwest;strokeColor=inherit;" vertex="1" parent="NKSY7g7vqChwTgXgC4Q4-100">
          <mxGeometry y="26" width="183" height="8" as="geometry" />
        </mxCell>
        <mxCell id="NKSY7g7vqChwTgXgC4Q4-102" value="+ model()&lt;br&gt;+ view()&lt;br&gt;+ notFound()" style="text;strokeColor=none;fillColor=none;align=left;verticalAlign=top;spacingLeft=4;spacingRight=4;overflow=hidden;rotatable=0;points=[[0,0.5],[1,0.5]];portConstraint=eastwest;whiteSpace=wrap;html=1;" vertex="1" parent="NKSY7g7vqChwTgXgC4Q4-100">
          <mxGeometry y="34" width="183" height="66" as="geometry" />
        </mxCell>
        <mxCell id="NKSY7g7vqChwTgXgC4Q4-103" value="Extends" style="endArrow=block;endSize=16;endFill=0;html=1;rounded=0;exitX=0.998;exitY=0.843;exitDx=0;exitDy=0;exitPerimeter=0;edgeStyle=orthogonalEdgeStyle;entryX=1;entryY=0.5;entryDx=0;entryDy=0;" edge="1" parent="1" source="NKSY7g7vqChwTgXgC4Q4-22" target="NKSY7g7vqChwTgXgC4Q4-43">
          <mxGeometry width="160" relative="1" as="geometry">
            <mxPoint x="-1650" y="1580" as="sourcePoint" />
            <mxPoint x="-690" y="1340" as="targetPoint" />
            <Array as="points">
              <mxPoint x="-940" y="1845" />
              <mxPoint x="-940" y="1247" />
            </Array>
          </mxGeometry>
        </mxCell>
        <mxCell id="NKSY7g7vqChwTgXgC4Q4-104" value="Extends" style="endArrow=block;endSize=16;endFill=0;html=1;rounded=0;edgeStyle=orthogonalEdgeStyle;entryX=1;entryY=0.25;entryDx=0;entryDy=0;" edge="1" parent="1" target="NKSY7g7vqChwTgXgC4Q4-41">
          <mxGeometry width="160" relative="1" as="geometry">
            <mxPoint x="-1180" y="2000" as="sourcePoint" />
            <mxPoint x="-1467" y="1257" as="targetPoint" />
            <Array as="points">
              <mxPoint x="-1180" y="2000" />
              <mxPoint x="-910" y="2000" />
              <mxPoint x="-910" y="1205" />
            </Array>
          </mxGeometry>
        </mxCell>
        <mxCell id="NKSY7g7vqChwTgXgC4Q4-105" value="Extends" style="endArrow=block;endSize=16;endFill=0;html=1;rounded=0;exitX=0.002;exitY=0.239;exitDx=0;exitDy=0;edgeStyle=orthogonalEdgeStyle;entryX=-0.012;entryY=0.141;entryDx=0;entryDy=0;entryPerimeter=0;exitPerimeter=0;" edge="1" parent="1" source="NKSY7g7vqChwTgXgC4Q4-36" target="NKSY7g7vqChwTgXgC4Q4-41">
          <mxGeometry width="160" relative="1" as="geometry">
            <mxPoint x="-2160" y="1648" as="sourcePoint" />
            <mxPoint x="-1650" y="1257" as="targetPoint" />
            <Array as="points">
              <mxPoint x="-2220" y="2087" />
              <mxPoint x="-2220" y="1194" />
            </Array>
          </mxGeometry>
        </mxCell>
        <mxCell id="NKSY7g7vqChwTgXgC4Q4-106" value="Extends" style="endArrow=block;endSize=16;endFill=0;html=1;rounded=0;exitX=0.494;exitY=1.015;exitDx=0;exitDy=0;exitPerimeter=0;entryX=0.5;entryY=0;entryDx=0;entryDy=0;" edge="1" parent="1" source="z4cfBWZDvSzKU7RAXzXg-16" target="NKSY7g7vqChwTgXgC4Q4-100">
          <mxGeometry width="160" relative="1" as="geometry">
            <mxPoint x="-1630" y="1950" as="sourcePoint" />
            <mxPoint x="-1470" y="1950" as="targetPoint" />
          </mxGeometry>
        </mxCell>
        <mxCell id="NKSY7g7vqChwTgXgC4Q4-107" value="Extends" style="endArrow=block;endSize=16;endFill=0;html=1;rounded=0;exitX=1.003;exitY=1.023;exitDx=0;exitDy=0;exitPerimeter=0;entryX=0.25;entryY=0;entryDx=0;entryDy=0;" edge="1" parent="1" source="NKSY7g7vqChwTgXgC4Q4-8" target="NKSY7g7vqChwTgXgC4Q4-100">
          <mxGeometry width="160" relative="1" as="geometry">
            <mxPoint x="-1667" y="1972" as="sourcePoint" />
            <mxPoint x="-1665" y="2030" as="targetPoint" />
          </mxGeometry>
        </mxCell>
        <mxCell id="NKSY7g7vqChwTgXgC4Q4-108" value="Extends" style="endArrow=block;endSize=16;endFill=0;html=1;rounded=0;exitX=0.993;exitY=0.985;exitDx=0;exitDy=0;exitPerimeter=0;entryX=0.421;entryY=1.008;entryDx=0;entryDy=0;entryPerimeter=0;edgeStyle=orthogonalEdgeStyle;" edge="1" parent="1" source="NKSY7g7vqChwTgXgC4Q4-20" target="NKSY7g7vqChwTgXgC4Q4-102">
          <mxGeometry width="160" relative="1" as="geometry">
            <mxPoint x="-1657" y="1982" as="sourcePoint" />
            <mxPoint x="-1655" y="2040" as="targetPoint" />
            <Array as="points">
              <mxPoint x="-1690" y="2154" />
            </Array>
          </mxGeometry>
        </mxCell>
        <mxCell id="NKSY7g7vqChwTgXgC4Q4-109" value="Extends" style="endArrow=block;endSize=16;endFill=0;html=1;rounded=0;exitX=-0.006;exitY=1;exitDx=0;exitDy=0;exitPerimeter=0;entryX=0.758;entryY=-0.037;entryDx=0;entryDy=0;entryPerimeter=0;" edge="1" parent="1" source="z4cfBWZDvSzKU7RAXzXg-28" target="NKSY7g7vqChwTgXgC4Q4-100">
          <mxGeometry width="160" relative="1" as="geometry">
            <mxPoint x="-1647" y="1992" as="sourcePoint" />
            <mxPoint x="-1645" y="2050" as="targetPoint" />
          </mxGeometry>
        </mxCell>
        <mxCell id="NKSY7g7vqChwTgXgC4Q4-110" value="Extends" style="endArrow=block;endSize=16;endFill=0;html=1;rounded=0;exitX=0.518;exitY=1.112;exitDx=0;exitDy=0;exitPerimeter=0;edgeStyle=orthogonalEdgeStyle;entryX=0.674;entryY=1.006;entryDx=0;entryDy=0;entryPerimeter=0;" edge="1" parent="1" source="NKSY7g7vqChwTgXgC4Q4-32" target="NKSY7g7vqChwTgXgC4Q4-102">
          <mxGeometry width="160" relative="1" as="geometry">
            <mxPoint x="-1637" y="2002" as="sourcePoint" />
            <mxPoint x="-1630" y="2170" as="targetPoint" />
            <Array as="points">
              <mxPoint x="-1465" y="2170" />
              <mxPoint x="-1644" y="2170" />
            </Array>
          </mxGeometry>
        </mxCell>
        <mxCell id="NKSY7g7vqChwTgXgC4Q4-113" value="Extends" style="endArrow=block;endSize=16;endFill=0;html=1;rounded=0;exitX=0.5;exitY=0;exitDx=0;exitDy=0;entryX=0.497;entryY=0.996;entryDx=0;entryDy=0;entryPerimeter=0;" edge="1" parent="1" source="NKSY7g7vqChwTgXgC4Q4-62" target="NKSY7g7vqChwTgXgC4Q4-82">
          <mxGeometry width="160" relative="1" as="geometry">
            <mxPoint x="-1528.5" y="350" as="sourcePoint" />
            <mxPoint x="-1368.5" y="350" as="targetPoint" />
          </mxGeometry>
        </mxCell>
        <mxCell id="NKSY7g7vqChwTgXgC4Q4-56" value="HotelModel" style="swimlane;fontStyle=1;align=center;verticalAlign=top;childLayout=stackLayout;horizontal=1;startSize=26;horizontalStack=0;resizeParent=1;resizeParentMax=0;resizeLast=0;collapsible=1;marginBottom=0;whiteSpace=wrap;html=1;" vertex="1" parent="1">
          <mxGeometry x="-2392" y="750" width="183" height="210" as="geometry" />
        </mxCell>
        <mxCell id="NKSY7g7vqChwTgXgC4Q4-57" value="" style="line;strokeWidth=1;fillColor=none;align=left;verticalAlign=middle;spacingTop=-1;spacingLeft=3;spacingRight=3;rotatable=0;labelPosition=right;points=[];portConstraint=eastwest;strokeColor=inherit;" vertex="1" parent="NKSY7g7vqChwTgXgC4Q4-56">
          <mxGeometry y="26" width="183" height="8" as="geometry" />
        </mxCell>
        <mxCell id="NKSY7g7vqChwTgXgC4Q4-58" value="+ addHotelService()&lt;br&gt;+ getHotelServiceDetails()&lt;br&gt;+ getHotelServiceDetailsByID()&lt;br&gt;+ getServicesBySP()&lt;br&gt;+ editService()&lt;br&gt;+ getChatUsers()&lt;br&gt;+ getUserByUserId()&lt;br&gt;+ activate_deactivate()&lt;br&gt;+ getNumberofServices()&lt;br&gt;+ getPriceFromServiceID()" style="text;strokeColor=none;fillColor=none;align=left;verticalAlign=top;spacingLeft=4;spacingRight=4;overflow=hidden;rotatable=0;points=[[0,0.5],[1,0.5]];portConstraint=eastwest;whiteSpace=wrap;html=1;" vertex="1" parent="NKSY7g7vqChwTgXgC4Q4-56">
          <mxGeometry y="34" width="183" height="176" as="geometry" />
        </mxCell>
        <mxCell id="NKSY7g7vqChwTgXgC4Q4-115" value="Extends" style="endArrow=block;endSize=16;endFill=0;html=1;rounded=0;exitX=0.5;exitY=0;exitDx=0;exitDy=0;entryX=-0.002;entryY=1.023;entryDx=0;entryDy=0;entryPerimeter=0;" edge="1" parent="1" source="NKSY7g7vqChwTgXgC4Q4-74" target="NKSY7g7vqChwTgXgC4Q4-79">
          <mxGeometry width="160" relative="1" as="geometry">
            <mxPoint x="-1630" y="460" as="sourcePoint" />
            <mxPoint x="-1470" y="460" as="targetPoint" />
          </mxGeometry>
        </mxCell>
        <mxCell id="NKSY7g7vqChwTgXgC4Q4-116" value="Extends" style="endArrow=block;endSize=16;endFill=0;html=1;rounded=0;exitX=0.5;exitY=0;exitDx=0;exitDy=0;entryX=0.199;entryY=1.014;entryDx=0;entryDy=0;entryPerimeter=0;" edge="1" parent="1" source="NKSY7g7vqChwTgXgC4Q4-71" target="NKSY7g7vqChwTgXgC4Q4-79">
          <mxGeometry x="0.2053" width="160" relative="1" as="geometry">
            <mxPoint x="-2277" y="530" as="sourcePoint" />
            <mxPoint x="-1840" y="365" as="targetPoint" />
            <mxPoint as="offset" />
          </mxGeometry>
        </mxCell>
        <mxCell id="NKSY7g7vqChwTgXgC4Q4-117" value="Extends" style="endArrow=block;endSize=16;endFill=0;html=1;rounded=0;exitX=0.5;exitY=0;exitDx=0;exitDy=0;entryX=0.385;entryY=1.003;entryDx=0;entryDy=0;entryPerimeter=0;" edge="1" parent="1" source="NKSY7g7vqChwTgXgC4Q4-53" target="NKSY7g7vqChwTgXgC4Q4-79">
          <mxGeometry width="160" relative="1" as="geometry">
            <mxPoint x="-2071" y="531" as="sourcePoint" />
            <mxPoint x="-1803" y="364" as="targetPoint" />
          </mxGeometry>
        </mxCell>
        <mxCell id="NKSY7g7vqChwTgXgC4Q4-118" value="Extends" style="endArrow=block;endSize=16;endFill=0;html=1;rounded=0;exitX=0.5;exitY=0;exitDx=0;exitDy=0;entryX=0.557;entryY=0.993;entryDx=0;entryDy=0;entryPerimeter=0;" edge="1" parent="1" source="NKSY7g7vqChwTgXgC4Q4-68" target="NKSY7g7vqChwTgXgC4Q4-79">
          <mxGeometry width="160" relative="1" as="geometry">
            <mxPoint x="-1848" y="530" as="sourcePoint" />
            <mxPoint x="-1778" y="364" as="targetPoint" />
          </mxGeometry>
        </mxCell>
        <mxCell id="NKSY7g7vqChwTgXgC4Q4-119" value="Extends" style="endArrow=block;endSize=16;endFill=0;html=1;rounded=0;exitX=0.5;exitY=0;exitDx=0;exitDy=0;entryX=0.743;entryY=1.014;entryDx=0;entryDy=0;entryPerimeter=0;" edge="1" parent="1" source="NKSY7g7vqChwTgXgC4Q4-44" target="NKSY7g7vqChwTgXgC4Q4-79">
          <mxGeometry x="0.2202" y="2" width="160" relative="1" as="geometry">
            <mxPoint x="-1658" y="531" as="sourcePoint" />
            <mxPoint x="-1744" y="367" as="targetPoint" />
            <mxPoint as="offset" />
          </mxGeometry>
        </mxCell>
        <mxCell id="NKSY7g7vqChwTgXgC4Q4-120" value="Extends" style="endArrow=block;endSize=16;endFill=0;html=1;rounded=0;exitX=0.5;exitY=0;exitDx=0;exitDy=0;entryX=1.03;entryY=1.016;entryDx=0;entryDy=0;entryPerimeter=0;" edge="1" parent="1" source="NKSY7g7vqChwTgXgC4Q4-50" target="NKSY7g7vqChwTgXgC4Q4-79">
          <mxGeometry width="160" relative="1" as="geometry">
            <mxPoint x="-1648" y="541" as="sourcePoint" />
            <mxPoint x="-1734" y="377" as="targetPoint" />
          </mxGeometry>
        </mxCell>
        <mxCell id="NKSY7g7vqChwTgXgC4Q4-121" value="Extends" style="endArrow=block;endSize=16;endFill=0;html=1;rounded=0;exitX=1;exitY=0.5;exitDx=0;exitDy=0;entryX=1;entryY=0.5;entryDx=0;entryDy=0;edgeStyle=orthogonalEdgeStyle;" edge="1" parent="1" source="NKSY7g7vqChwTgXgC4Q4-61" target="NKSY7g7vqChwTgXgC4Q4-79">
          <mxGeometry width="160" relative="1" as="geometry">
            <mxPoint x="-1638" y="551" as="sourcePoint" />
            <mxPoint x="-1724" y="387" as="targetPoint" />
            <Array as="points">
              <mxPoint x="-1120" y="870" />
              <mxPoint x="-1120" y="232" />
            </Array>
          </mxGeometry>
        </mxCell>
        <mxCell id="NKSY7g7vqChwTgXgC4Q4-122" value="Extends" style="endArrow=block;endSize=16;endFill=0;html=1;rounded=0;exitX=0;exitY=0.5;exitDx=0;exitDy=0;entryX=0;entryY=0.5;entryDx=0;entryDy=0;edgeStyle=orthogonalEdgeStyle;" edge="1" parent="1" source="NKSY7g7vqChwTgXgC4Q4-58" target="NKSY7g7vqChwTgXgC4Q4-79">
          <mxGeometry width="160" relative="1" as="geometry">
            <mxPoint x="-1628" y="561" as="sourcePoint" />
            <mxPoint x="-1714" y="397" as="targetPoint" />
            <Array as="points">
              <mxPoint x="-2440" y="872" />
              <mxPoint x="-2440" y="232" />
            </Array>
          </mxGeometry>
        </mxCell>
        <mxCell id="NKSY7g7vqChwTgXgC4Q4-123" value="Extends" style="endArrow=block;endSize=16;endFill=0;html=1;rounded=0;exitX=1;exitY=0.5;exitDx=0;exitDy=0;entryX=-0.033;entryY=0.212;entryDx=0;entryDy=0;entryPerimeter=0;edgeStyle=orthogonalEdgeStyle;jumpStyle=arc;" edge="1" parent="1" source="NKSY7g7vqChwTgXgC4Q4-49" target="NKSY7g7vqChwTgXgC4Q4-79">
          <mxGeometry x="0.304" y="10" width="160" relative="1" as="geometry">
            <mxPoint x="-1618" y="571" as="sourcePoint" />
            <mxPoint x="-1704" y="407" as="targetPoint" />
            <Array as="points">
              <mxPoint x="-1980" y="777" />
              <mxPoint x="-1980" y="164" />
            </Array>
            <mxPoint as="offset" />
          </mxGeometry>
        </mxCell>
        <mxCell id="NKSY7g7vqChwTgXgC4Q4-124" value="Extends" style="endArrow=block;endSize=16;endFill=0;html=1;rounded=0;exitX=0;exitY=0.5;exitDx=0;exitDy=0;entryX=1.009;entryY=0.15;entryDx=0;entryDy=0;entryPerimeter=0;edgeStyle=orthogonalEdgeStyle;jumpStyle=arc;" edge="1" parent="1" source="NKSY7g7vqChwTgXgC4Q4-67" target="NKSY7g7vqChwTgXgC4Q4-79">
          <mxGeometry x="0.3976" width="160" relative="1" as="geometry">
            <mxPoint x="-1890" y="570" as="sourcePoint" />
            <mxPoint x="-1730" y="570" as="targetPoint" />
            <Array as="points">
              <mxPoint x="-1550" y="870" />
              <mxPoint x="-1550" y="149" />
            </Array>
            <mxPoint y="-1" as="offset" />
          </mxGeometry>
        </mxCell>
        <mxCell id="NKSY7g7vqChwTgXgC4Q4-127" value="&lt;font style=&quot;font-size: 20px;&quot;&gt;&lt;b&gt;MODELS&lt;/b&gt;&lt;/font&gt;" style="text;html=1;strokeColor=none;fillColor=none;align=center;verticalAlign=middle;whiteSpace=wrap;rounded=0;" vertex="1" parent="1">
          <mxGeometry x="-967" y="631" width="60" height="30" as="geometry" />
        </mxCell>
        <mxCell id="NKSY7g7vqChwTgXgC4Q4-128" value="&lt;font style=&quot;font-size: 20px;&quot;&gt;&lt;b&gt;CONTROLLERS&lt;/b&gt;&lt;/font&gt;" style="text;html=1;strokeColor=none;fillColor=none;align=center;verticalAlign=middle;whiteSpace=wrap;rounded=0;" vertex="1" parent="1">
          <mxGeometry x="-2403.5" y="1703" width="60" height="30" as="geometry" />
        </mxCell>
        <mxCell id="NKSY7g7vqChwTgXgC4Q4-129" value="" style="rounded=0;whiteSpace=wrap;html=1;fillColor=none;" vertex="1" parent="1">
          <mxGeometry x="-2550" width="1780" height="2280" as="geometry" />
        </mxCell>
      </root>
    </mxGraphModel>
  </diagram>
</mxfile>
